STARTFONT 2.1
FONT -FontForge-FF8-Medium-R-Normal--24-240-75-75-P-118-ISO10646-1
SIZE 24 75 75
FONTBOUNDINGBOX 14 21 0 -3
COMMENT "Generated by fontforge, http://fontforge.sourceforge.net"
COMMENT "Tristanto"
STARTPROPERTIES 40
FOUNDRY "FontForge"
FAMILY_NAME "FF8"
WEIGHT_NAME "Medium"
SLANT "R"
SETWIDTH_NAME "Normal"
ADD_STYLE_NAME ""
PIXEL_SIZE 24
POINT_SIZE 240
RESOLUTION_X 75
RESOLUTION_Y 75
SPACING "P"
AVERAGE_WIDTH 118
CHARSET_REGISTRY "ISO10646"
CHARSET_ENCODING "1"
FONTNAME_REGISTRY ""
CHARSET_COLLECTIONS "ISO10646-1"
FONT_NAME "FF8"
FACE_NAME "FF8"
COPYRIGHT "Tristanto"
FONT_VERSION "001.000"
FONT_ASCENT 18
FONT_DESCENT 6
UNDERLINE_POSITION -4
UNDERLINE_THICKNESS 2
X_HEIGHT 8
CAP_HEIGHT 13
RAW_ASCENT 750
RAW_DESCENT 250
NORM_SPACE 12
RELATIVE_WEIGHT 50
RELATIVE_SETWIDTH 50
SUPERSCRIPT_X 0
SUPERSCRIPT_Y 11
SUPERSCRIPT_SIZE 16
SUBSCRIPT_X 0
SUBSCRIPT_Y 3
SUBSCRIPT_SIZE 16
FIGURE_WIDTH 12
AVG_LOWERCASE_WIDTH 120
AVG_UPPERCASE_WIDTH 120
ENDPROPERTIES
CHARS 150
STARTCHAR space
ENCODING 32
SWIDTH 500 0
DWIDTH 12 0
BBX 1 1 0 0
BITMAP
00
ENDCHAR
STARTCHAR exclam
ENCODING 33
SWIDTH 500 0
DWIDTH 12 0
BBX 5 14 3 0
BITMAP
60
60
F8
F8
F8
F8
F8
F8
60
60
60
00
60
60
ENDCHAR
STARTCHAR quotedbl
ENCODING 34
SWIDTH 500 0
DWIDTH 12 0
BBX 8 6 1 9
BITMAP
F7
F7
F7
33
F7
C6
ENDCHAR
STARTCHAR numbersign
ENCODING 35
SWIDTH 500 0
DWIDTH 12 0
BBX 11 11 0 0
BITMAP
0D80
0D80
0D80
7FE0
7FE0
1B00
1B00
1B00
FF80
FF80
6C00
ENDCHAR
STARTCHAR dollar
ENCODING 36
SWIDTH 500 0
DWIDTH 12 0
BBX 8 14 1 -2
BITMAP
18
3E
3E
DB
DB
D8
3E
3F
1B
DB
FF
3E
18
18
ENDCHAR
STARTCHAR percent
ENCODING 37
SWIDTH 500 0
DWIDTH 12 0
BBX 11 14 0 0
BITMAP
6180
6180
D980
DB80
DB00
6300
6F00
0C00
1980
1BE0
1B60
6360
63E0
6180
ENDCHAR
STARTCHAR ampersand
ENCODING 38
SWIDTH 500 0
DWIDTH 12 0
BBX 11 11 0 0
BITMAP
1C00
1C00
6300
6300
6300
7C60
FFE0
C380
C380
FFE0
7C60
ENDCHAR
STARTCHAR quotesingle
ENCODING 39
SWIDTH 500 0
DWIDTH 12 0
BBX 4 6 4 9
BITMAP
F0
F0
F0
30
F0
C0
ENDCHAR
STARTCHAR parenleft
ENCODING 40
SWIDTH 500 0
DWIDTH 12 0
BBX 5 20 3 -3
BITMAP
18
18
18
78
60
60
E0
C0
C0
C0
C0
C0
C0
C0
60
60
60
18
18
18
ENDCHAR
STARTCHAR parenright
ENCODING 41
SWIDTH 500 0
DWIDTH 12 0
BBX 5 20 3 -3
BITMAP
C0
C0
C0
E0
60
60
78
18
18
18
18
18
18
18
60
60
60
C0
C0
C0
ENDCHAR
STARTCHAR asterisk
ENCODING 42
SWIDTH 500 0
DWIDTH 12 0
BBX 11 11 0 1
BITMAP
0C00
CC60
CC60
6D80
7F80
1F00
6D80
EDE0
CC60
0C00
0C00
ENDCHAR
STARTCHAR plus
ENCODING 43
SWIDTH 500 0
DWIDTH 12 0
BBX 8 8 1 1
BITMAP
18
18
18
FF
FF
18
18
18
ENDCHAR
STARTCHAR comma
ENCODING 44
SWIDTH 500 0
DWIDTH 12 0
BBX 4 6 4 -3
BITMAP
F0
F0
F0
30
F0
C0
ENDCHAR
STARTCHAR hyphen
ENCODING 45
SWIDTH 500 0
DWIDTH 12 0
BBX 8 2 1 4
BITMAP
FF
FF
ENDCHAR
STARTCHAR period
ENCODING 46
SWIDTH 500 0
DWIDTH 12 0
BBX 4 3 4 0
BITMAP
F0
F0
F0
ENDCHAR
STARTCHAR slash
ENCODING 47
SWIDTH 500 0
DWIDTH 12 0
BBX 6 12 3 0
BITMAP
0C
0C
0C
18
18
18
60
60
60
C0
C0
C0
ENDCHAR
STARTCHAR zero
ENCODING 48
SWIDTH 500 0
DWIDTH 12 0
BBX 10 14 1 0
BITMAP
3F00
3F00
C0C0
C0C0
C0C0
DEC0
DEC0
DEC0
DEC0
DEC0
C0C0
C0C0
FFC0
3F00
ENDCHAR
STARTCHAR one
ENCODING 49
SWIDTH 500 0
DWIDTH 12 0
BBX 5 14 3 0
BITMAP
18
18
78
F8
D8
18
18
18
18
18
18
18
18
18
ENDCHAR
STARTCHAR two
ENCODING 50
SWIDTH 500 0
DWIDTH 12 0
BBX 10 14 1 0
BITMAP
3F00
3F00
C0C0
C0C0
C0C0
00C0
03C0
0300
0600
1E00
1800
3000
FFC0
FFC0
ENDCHAR
STARTCHAR three
ENCODING 51
SWIDTH 500 0
DWIDTH 12 0
BBX 10 14 1 0
BITMAP
3F00
3F00
C0C0
C0C0
00C0
00C0
1FC0
1F00
00C0
00C0
00C0
C0C0
FFC0
3F00
ENDCHAR
STARTCHAR four
ENCODING 52
SWIDTH 500 0
DWIDTH 12 0
BBX 10 14 1 0
BITMAP
0700
0700
1B00
3B00
3300
C300
C300
C300
C300
FFC0
FFC0
0300
0300
0300
ENDCHAR
STARTCHAR five
ENCODING 53
SWIDTH 500 0
DWIDTH 12 0
BBX 10 14 1 0
BITMAP
FFC0
FFC0
C000
C000
C000
FF00
FFC0
00C0
00C0
00C0
00C0
C0C0
FFC0
3F00
ENDCHAR
STARTCHAR six
ENCODING 54
SWIDTH 500 0
DWIDTH 12 0
BBX 10 14 1 0
BITMAP
3F00
3F00
C0C0
C0C0
C000
FF00
FFC0
C0C0
C0C0
C0C0
C0C0
C0C0
FFC0
3F00
ENDCHAR
STARTCHAR seven
ENCODING 55
SWIDTH 500 0
DWIDTH 12 0
BBX 10 14 1 0
BITMAP
FFC0
FFC0
00C0
00C0
00C0
0300
0700
0600
1800
1800
1800
1800
1800
1800
ENDCHAR
STARTCHAR eight
ENCODING 56
SWIDTH 500 0
DWIDTH 12 0
BBX 10 14 1 0
BITMAP
3F00
3F00
C0C0
C0C0
C0C0
3F00
FFC0
C0C0
C0C0
C0C0
C0C0
C0C0
FFC0
3F00
ENDCHAR
STARTCHAR nine
ENCODING 57
SWIDTH 500 0
DWIDTH 12 0
BBX 10 14 1 0
BITMAP
3F00
3F00
C0C0
C0C0
C0C0
C0C0
FFC0
3FC0
00C0
00C0
00C0
C0C0
FFC0
3F00
ENDCHAR
STARTCHAR colon
ENCODING 58
SWIDTH 500 0
DWIDTH 12 0
BBX 4 8 4 1
BITMAP
F0
F0
F0
00
F0
F0
F0
F0
ENDCHAR
STARTCHAR semicolon
ENCODING 59
SWIDTH 500 0
DWIDTH 12 0
BBX 4 11 4 -2
BITMAP
F0
F0
F0
00
F0
F0
F0
F0
30
C0
C0
ENDCHAR
STARTCHAR less
ENCODING 60
SWIDTH 500 0
DWIDTH 12 0
BBX 12 11 0 0
BITMAP
0070
0070
0380
1F80
1C00
E000
FC00
1C00
0380
03F0
0070
ENDCHAR
STARTCHAR equal
ENCODING 61
SWIDTH 500 0
DWIDTH 12 0
BBX 8 5 1 3
BITMAP
FF
FF
00
FF
FF
ENDCHAR
STARTCHAR greater
ENCODING 62
SWIDTH 500 0
DWIDTH 12 0
BBX 12 11 0 0
BITMAP
E000
E000
1C00
1F80
0380
0070
03F0
0380
1C00
FC00
E000
ENDCHAR
STARTCHAR question
ENCODING 63
SWIDTH 500 0
DWIDTH 12 0
BBX 8 14 1 0
BITMAP
3E
3E
C3
C3
C3
03
07
06
18
18
18
00
18
18
ENDCHAR
STARTCHAR at
ENCODING 64
SWIDTH 500 0
DWIDTH 12 0
BBX 10 15 1 0
BITMAP
3F00
FFC0
C0C0
C0C0
C0C0
C0C0
C7C0
C7C0
C6C0
C7C0
C7C0
C7C0
C000
FFC0
3FC0
ENDCHAR
STARTCHAR A
ENCODING 65
SWIDTH 500 0
DWIDTH 12 0
BBX 10 14 1 0
BITMAP
1E00
1E00
3300
3300
3300
C0C0
C0C0
C0C0
FFC0
FFC0
C0C0
C0C0
C0C0
C0C0
ENDCHAR
STARTCHAR B
ENCODING 66
SWIDTH 500 0
DWIDTH 12 0
BBX 10 14 1 0
BITMAP
FF00
FF00
C0C0
C0C0
C0C0
C0C0
FFC0
FF00
C0C0
C0C0
C0C0
C0C0
FFC0
FF00
ENDCHAR
STARTCHAR C
ENCODING 67
SWIDTH 500 0
DWIDTH 12 0
BBX 10 14 1 0
BITMAP
3F00
3F00
C0C0
C0C0
C000
C000
C000
C000
C000
C000
C000
C0C0
FFC0
3F00
ENDCHAR
STARTCHAR D
ENCODING 68
SWIDTH 500 0
DWIDTH 12 0
BBX 10 14 1 0
BITMAP
FE00
FE00
C300
C3C0
C0C0
C0C0
C0C0
C0C0
C0C0
C0C0
C0C0
C300
FF00
FE00
ENDCHAR
STARTCHAR E
ENCODING 69
SWIDTH 500 0
DWIDTH 12 0
BBX 10 14 1 0
BITMAP
FFC0
FFC0
C000
C000
C000
C000
FF00
FF00
C000
C000
C000
C000
FFC0
FFC0
ENDCHAR
STARTCHAR F
ENCODING 70
SWIDTH 500 0
DWIDTH 12 0
BBX 10 14 1 0
BITMAP
FFC0
FFC0
C000
C000
C000
C000
FF00
FF00
C000
C000
C000
C000
C000
C000
ENDCHAR
STARTCHAR G
ENCODING 71
SWIDTH 500 0
DWIDTH 12 0
BBX 10 14 1 0
BITMAP
3F00
3F00
C0C0
C0C0
C000
C000
C7C0
C7C0
C0C0
C0C0
C0C0
C0C0
FFC0
3F00
ENDCHAR
STARTCHAR H
ENCODING 72
SWIDTH 500 0
DWIDTH 12 0
BBX 10 14 1 0
BITMAP
C0C0
C0C0
C0C0
C0C0
C0C0
C0C0
FFC0
FFC0
C0C0
C0C0
C0C0
C0C0
C0C0
C0C0
ENDCHAR
STARTCHAR I
ENCODING 73
SWIDTH 500 0
DWIDTH 12 0
BBX 5 14 3 0
BITMAP
F8
F8
60
60
60
60
60
60
60
60
60
60
F8
F8
ENDCHAR
STARTCHAR J
ENCODING 74
SWIDTH 500 0
DWIDTH 12 0
BBX 8 14 1 0
BITMAP
03
03
03
03
03
03
03
03
03
C3
C3
C3
FF
3E
ENDCHAR
STARTCHAR K
ENCODING 75
SWIDTH 500 0
DWIDTH 12 0
BBX 10 14 1 0
BITMAP
C0C0
C0C0
C300
C700
C600
D800
F800
F000
D800
DE00
C600
C300
C3C0
C0C0
ENDCHAR
STARTCHAR L
ENCODING 76
SWIDTH 500 0
DWIDTH 12 0
BBX 8 14 1 0
BITMAP
C0
C0
C0
C0
C0
C0
C0
C0
C0
C0
C0
C0
FF
FF
ENDCHAR
STARTCHAR M
ENCODING 77
SWIDTH 500 0
DWIDTH 12 0
BBX 11 14 0 0
BITMAP
C060
C060
E1E0
FBE0
DB60
CC60
CC60
C060
C060
C060
C060
C060
C060
C060
ENDCHAR
STARTCHAR N
ENCODING 78
SWIDTH 500 0
DWIDTH 12 0
BBX 10 14 1 0
BITMAP
C0C0
C0C0
F0C0
F8C0
D8C0
D8C0
DEC0
C6C0
C6C0
C7C0
C3C0
C0C0
C0C0
C0C0
ENDCHAR
STARTCHAR O
ENCODING 79
SWIDTH 500 0
DWIDTH 12 0
BBX 10 14 1 0
BITMAP
1E00
1E00
3300
F3C0
C0C0
C0C0
C0C0
C0C0
C0C0
C0C0
C0C0
3300
3F00
1E00
ENDCHAR
STARTCHAR P
ENCODING 80
SWIDTH 500 0
DWIDTH 12 0
BBX 10 14 1 0
BITMAP
FE00
FE00
C300
C3C0
C0C0
C0C0
C3C0
C300
FE00
FE00
C000
C000
C000
C000
ENDCHAR
STARTCHAR Q
ENCODING 81
SWIDTH 500 0
DWIDTH 12 0
BBX 11 14 0 0
BITMAP
1C00
1C00
6300
E380
C180
C180
C180
C180
C180
CD80
CD80
6300
7FE0
1DE0
ENDCHAR
STARTCHAR R
ENCODING 82
SWIDTH 500 0
DWIDTH 12 0
BBX 10 14 1 0
BITMAP
FF00
FF00
C0C0
C0C0
C0C0
C300
FF00
FE00
C300
C3C0
C0C0
C0C0
C0C0
C0C0
ENDCHAR
STARTCHAR S
ENCODING 83
SWIDTH 500 0
DWIDTH 12 0
BBX 10 14 1 0
BITMAP
3F00
3F00
C0C0
C0C0
C000
3000
3E00
1E00
0300
03C0
00C0
C0C0
FFC0
3F00
ENDCHAR
STARTCHAR T
ENCODING 84
SWIDTH 500 0
DWIDTH 12 0
BBX 11 14 0 0
BITMAP
FFE0
FFE0
0C00
0C00
0C00
0C00
0C00
0C00
0C00
0C00
0C00
0C00
0C00
0C00
ENDCHAR
STARTCHAR U
ENCODING 85
SWIDTH 500 0
DWIDTH 12 0
BBX 10 14 1 0
BITMAP
C0C0
C0C0
C0C0
C0C0
C0C0
C0C0
C0C0
C0C0
C0C0
C0C0
C0C0
C0C0
FFC0
3F00
ENDCHAR
STARTCHAR V
ENCODING 86
SWIDTH 500 0
DWIDTH 12 0
BBX 11 14 0 0
BITMAP
C060
C060
C060
C060
C060
6180
6180
6180
6180
7B80
1B00
1B00
1F00
0C00
ENDCHAR
STARTCHAR W
ENCODING 87
SWIDTH 500 0
DWIDTH 12 0
BBX 11 14 0 0
BITMAP
C060
C060
C060
C060
C060
CC60
CC60
CC60
DB60
DB60
DB60
6180
6180
6180
ENDCHAR
STARTCHAR X
ENCODING 88
SWIDTH 500 0
DWIDTH 12 0
BBX 11 14 0 0
BITMAP
C060
C060
6180
6180
6180
1B00
1F00
0C00
1B00
7B80
6180
6180
E1E0
C060
ENDCHAR
STARTCHAR Y
ENCODING 89
SWIDTH 500 0
DWIDTH 12 0
BBX 11 14 0 0
BITMAP
C060
C060
C060
E1E0
6180
6180
7B80
1B00
0C00
0C00
0C00
0C00
0C00
0C00
ENDCHAR
STARTCHAR Z
ENCODING 90
SWIDTH 500 0
DWIDTH 12 0
BBX 11 14 0 0
BITMAP
FFE0
FFE0
0060
01E0
0180
0300
0F00
0C00
1800
7800
6000
C000
FFE0
FFE0
ENDCHAR
STARTCHAR bracketleft
ENCODING 91
SWIDTH 500 0
DWIDTH 12 0
BBX 4 18 4 -3
BITMAP
F0
F0
C0
C0
C0
C0
C0
C0
C0
C0
C0
C0
C0
C0
C0
C0
F0
F0
ENDCHAR
STARTCHAR backslash
ENCODING 92
SWIDTH 500 0
DWIDTH 12 0
BBX 6 12 3 0
BITMAP
C0
C0
C0
60
60
60
18
18
18
0C
0C
0C
ENDCHAR
STARTCHAR bracketright
ENCODING 93
SWIDTH 500 0
DWIDTH 12 0
BBX 4 18 4 -3
BITMAP
F0
F0
30
30
30
30
30
30
30
30
30
30
30
30
30
30
F0
F0
ENDCHAR
STARTCHAR asciicircum
ENCODING 94
SWIDTH 500 0
DWIDTH 12 0
BBX 10 5 1 13
BITMAP
1E00
3F00
3300
C0C0
C0C0
ENDCHAR
STARTCHAR underscore
ENCODING 95
SWIDTH 500 0
DWIDTH 12 0
BBX 11 2 0 -2
BITMAP
FFE0
FFE0
ENDCHAR
STARTCHAR grave
ENCODING 96
SWIDTH 500 0
DWIDTH 12 0
BBX 5 4 3 13
BITMAP
E0
E0
18
18
ENDCHAR
STARTCHAR a
ENCODING 97
SWIDTH 500 0
DWIDTH 12 0
BBX 10 9 1 0
BITMAP
3E00
FF00
C300
3F00
FF00
C300
C300
FFC0
3EC0
ENDCHAR
STARTCHAR b
ENCODING 98
SWIDTH 500 0
DWIDTH 12 0
BBX 8 14 1 0
BITMAP
C0
C0
C0
C0
C0
DE
FF
F3
C3
C3
C3
F3
FF
DE
ENDCHAR
STARTCHAR c
ENCODING 99
SWIDTH 500 0
DWIDTH 12 0
BBX 8 9 1 0
BITMAP
3E
FF
C3
C0
C0
C0
C3
FF
3E
ENDCHAR
STARTCHAR d
ENCODING 100
SWIDTH 500 0
DWIDTH 12 0
BBX 8 14 1 0
BITMAP
03
03
03
03
03
3B
FF
C7
C3
C3
C3
C7
FF
3B
ENDCHAR
STARTCHAR e
ENCODING 101
SWIDTH 500 0
DWIDTH 12 0
BBX 8 9 1 0
BITMAP
3E
FF
C3
FF
FF
C0
C3
FF
3E
ENDCHAR
STARTCHAR f
ENCODING 102
SWIDTH 500 0
DWIDTH 12 0
BBX 5 14 3 0
BITMAP
18
18
60
F8
F8
60
60
60
60
60
60
60
60
60
ENDCHAR
STARTCHAR g
ENCODING 103
SWIDTH 500 0
DWIDTH 12 0
BBX 8 12 1 -3
BITMAP
3F
FF
C3
C3
C3
C3
3F
3F
03
C3
FF
3E
ENDCHAR
STARTCHAR h
ENCODING 104
SWIDTH 500 0
DWIDTH 12 0
BBX 8 14 1 0
BITMAP
C0
C0
C0
C0
C0
FE
FF
C3
C3
C3
C3
C3
C3
C3
ENDCHAR
STARTCHAR i
ENCODING 105
SWIDTH 500 0
DWIDTH 12 0
BBX 5 12 3 0
BITMAP
18
18
00
F8
F8
18
18
18
18
18
18
18
ENDCHAR
STARTCHAR j
ENCODING 106
SWIDTH 500 0
DWIDTH 12 0
BBX 5 15 3 -3
BITMAP
18
18
00
18
18
18
18
18
18
18
18
18
60
E0
C0
ENDCHAR
STARTCHAR k
ENCODING 107
SWIDTH 500 0
DWIDTH 12 0
BBX 8 12 1 0
BITMAP
C0
C0
C0
C3
C7
C6
D8
F8
F8
C6
C7
C3
ENDCHAR
STARTCHAR l
ENCODING 108
SWIDTH 500 0
DWIDTH 12 0
BBX 6 14 3 0
BITMAP
F8
F8
18
18
18
18
18
18
18
18
18
18
1C
1C
ENDCHAR
STARTCHAR m
ENCODING 109
SWIDTH 500 0
DWIDTH 12 0
BBX 11 9 0 0
BITMAP
FB80
FFE0
CC60
CC60
CC60
CC60
CC60
CC60
CC60
ENDCHAR
STARTCHAR n
ENCODING 110
SWIDTH 500 0
DWIDTH 12 0
BBX 8 9 1 0
BITMAP
FE
FF
C3
C3
C3
C3
C3
C3
C3
ENDCHAR
STARTCHAR o
ENCODING 111
SWIDTH 500 0
DWIDTH 12 0
BBX 8 9 1 0
BITMAP
3E
FF
C3
C3
C3
C3
C3
FF
3E
ENDCHAR
STARTCHAR p
ENCODING 112
SWIDTH 500 0
DWIDTH 12 0
BBX 8 12 1 -3
BITMAP
DE
FF
F3
C3
C3
C3
F3
FF
DE
C0
C0
C0
ENDCHAR
STARTCHAR q
ENCODING 113
SWIDTH 500 0
DWIDTH 12 0
BBX 8 12 1 -3
BITMAP
3B
FF
C7
C3
C3
C3
C7
FF
3B
03
03
03
ENDCHAR
STARTCHAR r
ENCODING 114
SWIDTH 500 0
DWIDTH 12 0
BBX 6 9 3 0
BITMAP
DC
FC
E0
C0
C0
C0
C0
C0
C0
ENDCHAR
STARTCHAR s
ENCODING 115
SWIDTH 500 0
DWIDTH 12 0
BBX 8 9 1 0
BITMAP
3E
FF
C3
38
3E
06
C3
FF
3E
ENDCHAR
STARTCHAR t
ENCODING 116
SWIDTH 500 0
DWIDTH 12 0
BBX 6 11 3 0
BITMAP
60
60
F8
F8
60
60
60
60
60
7C
1C
ENDCHAR
STARTCHAR u
ENCODING 117
SWIDTH 500 0
DWIDTH 12 0
BBX 8 9 1 0
BITMAP
C3
C3
C3
C3
C3
C3
C3
FF
3F
ENDCHAR
STARTCHAR v
ENCODING 118
SWIDTH 500 0
DWIDTH 12 0
BBX 8 9 1 0
BITMAP
C3
C3
C3
C3
F7
36
36
3E
18
ENDCHAR
STARTCHAR w
ENCODING 119
SWIDTH 500 0
DWIDTH 12 0
BBX 8 9 1 0
BITMAP
C3
C3
C3
DB
DB
DB
DB
FF
36
ENDCHAR
STARTCHAR x
ENCODING 120
SWIDTH 500 0
DWIDTH 12 0
BBX 8 9 1 0
BITMAP
C3
F7
36
18
18
18
36
F7
C3
ENDCHAR
STARTCHAR y
ENCODING 121
SWIDTH 500 0
DWIDTH 12 0
BBX 10 12 1 -3
BITMAP
C0C0
F3C0
3300
3300
3300
3300
1E00
1E00
0600
1800
F800
F000
ENDCHAR
STARTCHAR z
ENCODING 122
SWIDTH 500 0
DWIDTH 12 0
BBX 8 9 1 0
BITMAP
FF
FF
06
18
38
30
C0
FF
FF
ENDCHAR
STARTCHAR braceleft
ENCODING 123
SWIDTH 500 0
DWIDTH 12 0
BBX 10 20 1 -3
BITMAP
03C0
03C0
0600
0600
0600
0600
0600
0600
0600
FE00
F800
0600
0600
0600
0600
0600
0600
0600
07C0
03C0
ENDCHAR
STARTCHAR bar
ENCODING 124
SWIDTH 500 0
DWIDTH 12 0
BBX 2 20 4 -3
BITMAP
C0
C0
C0
C0
C0
C0
C0
C0
C0
C0
C0
C0
C0
C0
C0
C0
C0
C0
C0
C0
ENDCHAR
STARTCHAR braceright
ENCODING 125
SWIDTH 500 0
DWIDTH 12 0
BBX 11 20 0 -3
BITMAP
F800
F800
0C00
0C00
0C00
0C00
0C00
0C00
0C00
0FE0
03E0
0C00
0C00
0C00
0C00
0C00
0C00
0C00
FC00
F800
ENDCHAR
STARTCHAR asciitilde
ENCODING 126
SWIDTH 500 0
DWIDTH 12 0
BBX 11 5 0 3
BITMAP
7800
7800
CC60
CFE0
0380
ENDCHAR
STARTCHAR uni00A0
ENCODING 160
SWIDTH 500 0
DWIDTH 12 0
BBX 1 1 0 0
BITMAP
00
ENDCHAR
STARTCHAR sterling
ENCODING 163
SWIDTH 500 0
DWIDTH 12 0
BBX 10 15 1 0
BITMAP
0700
1F00
1800
3800
3800
3800
FF00
FF00
3800
3800
3800
3800
3800
FFC0
C7C0
ENDCHAR
STARTCHAR currency
ENCODING 164
SWIDTH 500 0
DWIDTH 12 0
BBX 14 14 0 0
BITMAP
1FE0
1FE0
6030
EFBC
CF8C
D80C
DBEC
DBEC
D86C
DFEC
CF8C
6030
7FF0
1FE0
ENDCHAR
STARTCHAR yen
ENCODING 165
SWIDTH 500 0
DWIDTH 12 0
BBX 11 17 0 0
BITMAP
6180
6180
6180
6180
6180
6180
7B80
1B00
0C00
FFE0
FFE0
0C00
FFE0
FFE0
0C00
0C00
0C00
ENDCHAR
STARTCHAR brokenbar
ENCODING 166
SWIDTH 500 0
DWIDTH 12 0
BBX 2 20 4 -3
BITMAP
C0
C0
C0
C0
C0
C0
C0
C0
C0
C0
00
00
C0
C0
C0
C0
C0
C0
C0
C0
ENDCHAR
STARTCHAR guillemotleft
ENCODING 171
SWIDTH 500 0
DWIDTH 12 0
BBX 9 8 0 1
BITMAP
1980
7B80
6300
CC00
EF00
6300
1980
1980
ENDCHAR
STARTCHAR degree
ENCODING 176
SWIDTH 500 0
DWIDTH 12 0
BBX 6 8 0 9
BITMAP
78
78
FC
FC
CC
FC
FC
78
ENDCHAR
STARTCHAR periodcentered
ENCODING 183
SWIDTH 500 0
DWIDTH 12 0
BBX 2 2 0 4
BITMAP
C0
C0
ENDCHAR
STARTCHAR guillemotright
ENCODING 187
SWIDTH 500 0
DWIDTH 12 0
BBX 9 8 0 1
BITMAP
CC00
EF00
6300
1980
7B80
6300
CC00
CC00
ENDCHAR
STARTCHAR Oacute
ENCODING 211
SWIDTH 500 0
DWIDTH 12 0
BBX 9 18 0 0
BITMAP
0C00
1C00
1800
0000
1C00
1C00
6300
E380
C180
C180
C180
C180
C180
C180
C180
6300
7F00
1C00
ENDCHAR
STARTCHAR multiply
ENCODING 215
SWIDTH 500 0
DWIDTH 12 0
BBX 7 7 1 1
BITMAP
C6
C6
38
38
38
C6
C6
ENDCHAR
STARTCHAR oacute
ENCODING 243
SWIDTH 500 0
DWIDTH 12 0
BBX 8 14 0 0
BITMAP
0C
0C
18
18
00
7C
FF
C3
C3
C3
C3
C3
FF
7C
ENDCHAR
STARTCHAR divide
ENCODING 247
SWIDTH 500 0
DWIDTH 12 0
BBX 6 8 0 3
BITMAP
78
78
00
FC
FC
00
78
78
ENDCHAR
STARTCHAR Aogonek
ENCODING 260
SWIDTH 500 0
DWIDTH 12 0
BBX 9 17 0 -3
BITMAP
1C00
1C00
6300
6300
6300
C180
C180
C180
FF80
FF80
C180
C180
C180
C180
0300
0380
0180
ENDCHAR
STARTCHAR aogonek
ENCODING 261
SWIDTH 500 0
DWIDTH 12 0
BBX 9 12 0 -3
BITMAP
7C00
FF00
C300
7F00
FF00
C300
CF00
FF80
7980
0300
0380
0180
ENDCHAR
STARTCHAR Cacute
ENCODING 262
SWIDTH 500 0
DWIDTH 12 0
BBX 9 18 0 0
BITMAP
0C00
1C00
1800
0000
7F00
7F00
C180
C180
C000
C000
C000
C000
C000
C000
C000
C180
FF80
7F00
ENDCHAR
STARTCHAR cacute
ENCODING 263
SWIDTH 500 0
DWIDTH 12 0
BBX 8 14 0 0
BITMAP
0C
0C
18
18
00
7C
FF
C3
C0
C0
C0
C3
FF
7C
ENDCHAR
STARTCHAR Eogonek
ENCODING 280
SWIDTH 500 0
DWIDTH 12 0
BBX 9 17 0 -3
BITMAP
FF80
FF80
C000
C000
C000
C000
FF00
FF00
C000
C000
C000
C000
FF80
FF80
0300
0380
0180
ENDCHAR
STARTCHAR eogonek
ENCODING 281
SWIDTH 500 0
DWIDTH 12 0
BBX 8 12 0 -3
BITMAP
7C
FF
C3
FF
FF
C0
C3
FF
7C
0C
0F
03
ENDCHAR
STARTCHAR Lslash
ENCODING 321
SWIDTH 500 0
DWIDTH 12 0
BBX 9 14 0 0
BITMAP
6000
6000
6000
6C00
6C00
7800
7800
6000
E000
E000
6000
6000
7F80
7F80
ENDCHAR
STARTCHAR lslash
ENCODING 322
SWIDTH 500 0
DWIDTH 12 0
BBX 6 14 0 0
BITMAP
60
60
60
6C
6C
78
78
60
E0
E0
60
60
60
60
ENDCHAR
STARTCHAR Nacute
ENCODING 323
SWIDTH 500 0
DWIDTH 12 0
BBX 9 18 0 0
BITMAP
0C00
1C00
1800
0000
C180
C180
E180
F980
D980
D980
DD80
CD80
CD80
CF80
C380
C180
C180
C180
ENDCHAR
STARTCHAR nacute
ENCODING 324
SWIDTH 500 0
DWIDTH 12 0
BBX 8 14 0 0
BITMAP
0C
0C
18
18
00
FC
FF
C3
C3
C3
C3
C3
C3
C3
ENDCHAR
STARTCHAR Sacute
ENCODING 346
SWIDTH 500 0
DWIDTH 12 0
BBX 9 18 0 0
BITMAP
0F00
1F00
1C00
0000
7F00
7F00
C180
C180
C000
6000
7C00
1C00
0300
0380
0180
C180
FF80
7F00
ENDCHAR
STARTCHAR sacute
ENCODING 347
SWIDTH 500 0
DWIDTH 12 0
BBX 8 14 0 0
BITMAP
0C
0C
18
18
00
7C
FF
C3
78
7C
0C
C3
FF
7C
ENDCHAR
STARTCHAR Zacute
ENCODING 377
SWIDTH 500 0
DWIDTH 12 0
BBX 11 18 0 0
BITMAP
0300
0F00
0C00
0000
FFE0
FFE0
0060
01E0
0180
0300
0F00
0C00
1800
7800
6000
C000
FFE0
FFE0
ENDCHAR
STARTCHAR zacute
ENCODING 378
SWIDTH 500 0
DWIDTH 12 0
BBX 8 14 0 0
BITMAP
0C
0C
18
18
00
FF
FF
0C
18
78
60
C0
FF
FF
ENDCHAR
STARTCHAR Zdotaccent
ENCODING 379
SWIDTH 500 0
DWIDTH 12 0
BBX 11 18 0 0
BITMAP
0F00
0F00
0F00
0000
FFE0
FFE0
0060
01E0
0180
0300
0F00
0C00
1800
7800
6000
C000
FFE0
FFE0
ENDCHAR
STARTCHAR zdotaccent
ENCODING 380
SWIDTH 500 0
DWIDTH 12 0
BBX 8 12 0 0
BITMAP
18
18
00
FF
FF
0C
18
78
60
C0
FF
FF
ENDCHAR
STARTCHAR uni2000
ENCODING 8192
SWIDTH 500 0
DWIDTH 12 0
BBX 1 1 0 0
BITMAP
00
ENDCHAR
STARTCHAR uni2001
ENCODING 8193
SWIDTH 500 0
DWIDTH 12 0
BBX 1 1 0 0
BITMAP
00
ENDCHAR
STARTCHAR uni2002
ENCODING 8194
SWIDTH 500 0
DWIDTH 12 0
BBX 1 1 0 0
BITMAP
00
ENDCHAR
STARTCHAR uni2003
ENCODING 8195
SWIDTH 500 0
DWIDTH 12 0
BBX 1 1 0 0
BITMAP
00
ENDCHAR
STARTCHAR uni2004
ENCODING 8196
SWIDTH 500 0
DWIDTH 12 0
BBX 1 1 0 0
BITMAP
00
ENDCHAR
STARTCHAR uni2005
ENCODING 8197
SWIDTH 500 0
DWIDTH 12 0
BBX 1 1 0 0
BITMAP
00
ENDCHAR
STARTCHAR uni2006
ENCODING 8198
SWIDTH 500 0
DWIDTH 12 0
BBX 1 1 0 0
BITMAP
00
ENDCHAR
STARTCHAR uni2007
ENCODING 8199
SWIDTH 500 0
DWIDTH 12 0
BBX 1 1 0 0
BITMAP
00
ENDCHAR
STARTCHAR uni2008
ENCODING 8200
SWIDTH 500 0
DWIDTH 12 0
BBX 1 1 0 0
BITMAP
00
ENDCHAR
STARTCHAR uni2009
ENCODING 8201
SWIDTH 500 0
DWIDTH 12 0
BBX 1 1 0 0
BITMAP
00
ENDCHAR
STARTCHAR uni200A
ENCODING 8202
SWIDTH 500 0
DWIDTH 12 0
BBX 1 1 0 0
BITMAP
00
ENDCHAR
STARTCHAR emdash
ENCODING 8212
SWIDTH 500 0
DWIDTH 12 0
BBX 12 2 0 4
BITMAP
FFF0
FFF0
ENDCHAR
STARTCHAR quoteleft
ENCODING 8216
SWIDTH 500 0
DWIDTH 12 0
BBX 3 6 0 9
BITMAP
60
E0
C0
E0
E0
E0
ENDCHAR
STARTCHAR quoteright
ENCODING 8217
SWIDTH 500 0
DWIDTH 12 0
BBX 3 6 0 9
BITMAP
E0
E0
E0
60
E0
C0
ENDCHAR
STARTCHAR quotedblleft
ENCODING 8220
SWIDTH 500 0
DWIDTH 12 0
BBX 3 6 0 9
BITMAP
60
E0
C0
E0
E0
E0
ENDCHAR
STARTCHAR quotedblright
ENCODING 8221
SWIDTH 500 0
DWIDTH 12 0
BBX 8 6 0 9
BITMAP
EF
EF
EF
63
EF
CC
ENDCHAR
STARTCHAR quotedblbase
ENCODING 8222
SWIDTH 500 0
DWIDTH 12 0
BBX 5 4 0 -2
BITMAP
F8
F8
C0
C0
ENDCHAR
STARTCHAR bullet
ENCODING 8226
SWIDTH 500 0
DWIDTH 12 0
BBX 3 2 0 4
BITMAP
E0
E0
ENDCHAR
STARTCHAR ellipsis
ENCODING 8230
SWIDTH 500 0
DWIDTH 12 0
BBX 6 2 0 0
BITMAP
FC
FC
ENDCHAR
STARTCHAR guilsinglleft
ENCODING 8249
SWIDTH 500 0
DWIDTH 12 0
BBX 5 8 0 1
BITMAP
18
78
60
C0
E0
60
18
18
ENDCHAR
STARTCHAR guilsinglright
ENCODING 8250
SWIDTH 500 0
DWIDTH 12 0
BBX 5 8 0 1
BITMAP
C0
E0
60
18
78
60
C0
C0
ENDCHAR
STARTCHAR Euro
ENCODING 8364
SWIDTH 500 0
DWIDTH 12 0
BBX 10 14 1 0
BITMAP
0700
0700
0700
3FC0
38C0
FE00
FE00
3800
FE00
FE00
3800
18C0
1FC0
0700
ENDCHAR
STARTCHAR uni3000
ENCODING 12288
SWIDTH 500 0
DWIDTH 12 0
BBX 1 1 0 0
BITMAP
00
ENDCHAR
STARTCHAR .notdef
ENCODING -1
SWIDTH 365 0
DWIDTH 9 0
BBX 7 16 1 0
BITMAP
FE
82
82
82
82
82
82
82
82
82
82
82
82
82
82
FE
ENDCHAR
STARTCHAR .null
ENCODING -1
SWIDTH 0 0
DWIDTH 0 0
BBX 1 1 0 0
BITMAP
00
ENDCHAR
STARTCHAR nonmarkingreturn
ENCODING -1
SWIDTH 333 0
DWIDTH 8 0
BBX 1 1 0 0
BITMAP
00
ENDCHAR
ENDFONT
