STARTFONT 2.1
FONT -FontForge-FF8-Medium-R-Normal--40-290-100-100-P-197-ISO10646-1
SIZE 29 100 100
FONTBOUNDINGBOX 23 35 0 -5
COMMENT "Generated by fontforge, http://fontforge.sourceforge.net"
COMMENT "Tristanto"
STARTPROPERTIES 40
FOUNDRY "FontForge"
FAMILY_NAME "FF8"
WEIGHT_NAME "Medium"
SLANT "R"
SETWIDTH_NAME "Normal"
ADD_STYLE_NAME ""
PIXEL_SIZE 40
POINT_SIZE 290
RESOLUTION_X 100
RESOLUTION_Y 100
SPACING "P"
AVERAGE_WIDTH 197
CHARSET_REGISTRY "ISO10646"
CHARSET_ENCODING "1"
FONTNAME_REGISTRY ""
CHARSET_COLLECTIONS "ISO10646-1"
FONT_NAME "FF8"
FACE_NAME "FF8"
COPYRIGHT "Tristanto"
FONT_VERSION "001.000"
FONT_ASCENT 30
FONT_DESCENT 10
UNDERLINE_POSITION -6
UNDERLINE_THICKNESS 2
X_HEIGHT 14
CAP_HEIGHT 22
RAW_ASCENT 750
RAW_DESCENT 250
NORM_SPACE 20
RELATIVE_WEIGHT 50
RELATIVE_SETWIDTH 50
SUPERSCRIPT_X 0
SUPERSCRIPT_Y 19
SUPERSCRIPT_SIZE 27
SUBSCRIPT_X 0
SUBSCRIPT_Y 5
SUBSCRIPT_SIZE 27
FIGURE_WIDTH 20
AVG_LOWERCASE_WIDTH 200
AVG_UPPERCASE_WIDTH 200
ENDPROPERTIES
CHARS 150
STARTCHAR space
ENCODING 32
SWIDTH 500 0
DWIDTH 20 0
BBX 1 1 0 0
BITMAP
00
ENDCHAR
STARTCHAR exclam
ENCODING 33
SWIDTH 500 0
DWIDTH 20 0
BBX 8 23 5 0
BITMAP
38
38
38
FF
FF
FF
FF
FF
FF
FF
FF
FF
FF
38
38
38
38
38
00
00
38
38
38
ENDCHAR
STARTCHAR quotedbl
ENCODING 34
SWIDTH 500 0
DWIDTH 20 0
BBX 13 10 2 15
BITMAP
FCF8
FCF8
FCF8
FCF8
FCF8
1C38
1C38
FCF8
E0E0
E0E0
ENDCHAR
STARTCHAR numbersign
ENCODING 35
SWIDTH 500 0
DWIDTH 20 0
BBX 18 18 0 0
BITMAP
01CE00
01CE00
01CE00
01CE00
01CE00
3FFFC0
3FFFC0
3FFFC0
073800
073800
073800
073800
073800
FFFE00
FFFE00
FFFE00
39C000
39C000
ENDCHAR
STARTCHAR dollar
ENCODING 36
SWIDTH 500 0
DWIDTH 20 0
BBX 13 23 2 -3
BITMAP
0700
0700
1FE0
1FE0
1FE0
E738
E738
E738
E700
E700
1FE0
1FE0
1FF8
0738
0738
E738
E738
FFF8
1FE0
1FE0
0700
0700
0700
ENDCHAR
STARTCHAR percent
ENCODING 37
SWIDTH 500 0
DWIDTH 20 0
BBX 18 23 0 0
BITMAP
380E00
380E00
380E00
E70E00
E70E00
E73E00
E73800
E73800
383800
383800
39F800
01C000
01C000
070E00
070E00
073FC0
0739C0
0739C0
3839C0
3839C0
383FC0
380E00
380E00
ENDCHAR
STARTCHAR ampersand
ENCODING 38
SWIDTH 500 0
DWIDTH 20 0
BBX 18 18 0 0
BITMAP
07C000
07C000
07C000
383800
383800
383800
383800
383800
3FC1C0
3FC1C0
FFFFC0
E03E00
E03E00
E03E00
E03E00
FFFFC0
3FC1C0
3FC1C0
ENDCHAR
STARTCHAR quotesingle
ENCODING 39
SWIDTH 500 0
DWIDTH 20 0
BBX 6 10 7 15
BITMAP
FC
FC
FC
FC
FC
1C
1C
FC
E0
E0
ENDCHAR
STARTCHAR parenleft
ENCODING 40
SWIDTH 500 0
DWIDTH 20 0
BBX 8 33 5 -5
BITMAP
07
07
07
07
07
3F
38
38
38
38
F8
E0
E0
E0
E0
E0
E0
E0
E0
E0
E0
E0
E0
38
38
38
38
38
07
07
07
07
07
ENDCHAR
STARTCHAR parenright
ENCODING 41
SWIDTH 500 0
DWIDTH 20 0
BBX 8 33 5 -5
BITMAP
E0
E0
E0
E0
E0
F8
38
38
38
38
3F
07
07
07
07
07
07
07
07
07
07
07
07
38
38
38
38
38
E0
E0
E0
E0
E0
ENDCHAR
STARTCHAR asterisk
ENCODING 42
SWIDTH 500 0
DWIDTH 20 0
BBX 18 18 0 2
BITMAP
01C000
01C000
E1C1C0
E1C1C0
E1C1C0
39CE00
39CE00
3FFE00
07F800
07F800
39CE00
39CE00
F9CFC0
E1C1C0
E1C1C0
01C000
01C000
01C000
ENDCHAR
STARTCHAR plus
ENCODING 43
SWIDTH 500 0
DWIDTH 20 0
BBX 13 13 2 2
BITMAP
0700
0700
0700
0700
0700
FFF8
FFF8
FFF8
0700
0700
0700
0700
0700
ENDCHAR
STARTCHAR comma
ENCODING 44
SWIDTH 500 0
DWIDTH 20 0
BBX 6 10 7 -5
BITMAP
FC
FC
FC
FC
FC
1C
1C
FC
E0
E0
ENDCHAR
STARTCHAR hyphen
ENCODING 45
SWIDTH 500 0
DWIDTH 20 0
BBX 13 3 2 7
BITMAP
FFF8
FFF8
FFF8
ENDCHAR
STARTCHAR period
ENCODING 46
SWIDTH 500 0
DWIDTH 20 0
BBX 6 5 7 0
BITMAP
FC
FC
FC
FC
FC
ENDCHAR
STARTCHAR slash
ENCODING 47
SWIDTH 500 0
DWIDTH 20 0
BBX 10 20 5 0
BITMAP
01C0
01C0
01C0
01C0
01C0
0700
0700
0700
0700
0700
3800
3800
3800
3800
3800
E000
E000
E000
E000
E000
ENDCHAR
STARTCHAR zero
ENCODING 48
SWIDTH 500 0
DWIDTH 20 0
BBX 16 23 2 0
BITMAP
1FF8
1FF8
1FF8
E007
E007
E007
E007
E007
E7E7
E7E7
E7E7
E7E7
E7E7
E7E7
E7E7
E7E7
E007
E007
E007
E007
FFFF
1FF8
1FF8
ENDCHAR
STARTCHAR one
ENCODING 49
SWIDTH 500 0
DWIDTH 20 0
BBX 8 23 5 0
BITMAP
07
07
07
3F
3F
FF
E7
E7
07
07
07
07
07
07
07
07
07
07
07
07
07
07
07
ENDCHAR
STARTCHAR two
ENCODING 50
SWIDTH 500 0
DWIDTH 20 0
BBX 16 23 2 0
BITMAP
1FF8
1FF8
1FF8
E007
E007
E007
E007
E007
0007
0007
003F
0038
0038
00E0
00E0
07E0
0700
0700
1C00
1C00
FFFF
FFFF
FFFF
ENDCHAR
STARTCHAR three
ENCODING 51
SWIDTH 500 0
DWIDTH 20 0
BBX 16 23 2 0
BITMAP
1FF8
1FF8
1FF8
E007
E007
E007
0007
0007
0007
0007
07FF
07F8
07F8
0007
0007
0007
0007
0007
E007
E007
FFFF
1FF8
1FF8
ENDCHAR
STARTCHAR four
ENCODING 52
SWIDTH 500 0
DWIDTH 20 0
BBX 16 23 2 0
BITMAP
00F8
00F8
00F8
0738
0738
1F38
1C38
1C38
E038
E038
E038
E038
E038
E038
E038
FFFF
FFFF
FFFF
0038
0038
0038
0038
0038
ENDCHAR
STARTCHAR five
ENCODING 53
SWIDTH 500 0
DWIDTH 20 0
BBX 16 23 2 0
BITMAP
FFFF
FFFF
FFFF
E000
E000
E000
E000
E000
FFF8
FFF8
FFFF
0007
0007
0007
0007
0007
0007
0007
E007
E007
FFFF
1FF8
1FF8
ENDCHAR
STARTCHAR six
ENCODING 54
SWIDTH 500 0
DWIDTH 20 0
BBX 16 23 2 0
BITMAP
1FF8
1FF8
1FF8
E007
E007
E007
E000
E000
FFF8
FFF8
FFFF
E007
E007
E007
E007
E007
E007
E007
E007
E007
FFFF
1FF8
1FF8
ENDCHAR
STARTCHAR seven
ENCODING 55
SWIDTH 500 0
DWIDTH 20 0
BBX 16 23 2 0
BITMAP
FFFF
FFFF
FFFF
0007
0007
0007
0007
0007
0038
0038
00F8
00E0
00E0
0700
0700
0700
0700
0700
0700
0700
0700
0700
0700
ENDCHAR
STARTCHAR eight
ENCODING 56
SWIDTH 500 0
DWIDTH 20 0
BBX 16 23 2 0
BITMAP
1FF8
1FF8
1FF8
E007
E007
E007
E007
E007
1FF8
1FF8
FFFF
E007
E007
E007
E007
E007
E007
E007
E007
E007
FFFF
1FF8
1FF8
ENDCHAR
STARTCHAR nine
ENCODING 57
SWIDTH 500 0
DWIDTH 20 0
BBX 16 23 2 0
BITMAP
1FF8
1FF8
1FF8
E007
E007
E007
E007
E007
E007
E007
FFFF
1FFF
1FFF
0007
0007
0007
0007
0007
E007
E007
FFFF
1FF8
1FF8
ENDCHAR
STARTCHAR colon
ENCODING 58
SWIDTH 500 0
DWIDTH 20 0
BBX 6 13 7 2
BITMAP
FC
FC
FC
FC
FC
00
00
FC
FC
FC
FC
FC
FC
ENDCHAR
STARTCHAR semicolon
ENCODING 59
SWIDTH 500 0
DWIDTH 20 0
BBX 6 18 7 -3
BITMAP
FC
FC
FC
FC
FC
00
00
FC
FC
FC
FC
FC
FC
1C
1C
E0
E0
E0
ENDCHAR
STARTCHAR less
ENCODING 60
SWIDTH 500 0
DWIDTH 20 0
BBX 20 18 0 0
BITMAP
0001F0
0001F0
0001F0
003E00
003E00
07FE00
07C000
07C000
F80000
F80000
FFC000
07C000
07C000
003E00
003E00
003FF0
0001F0
0001F0
ENDCHAR
STARTCHAR equal
ENCODING 61
SWIDTH 500 0
DWIDTH 20 0
BBX 13 8 2 5
BITMAP
FFF8
FFF8
FFF8
0000
0000
FFF8
FFF8
FFF8
ENDCHAR
STARTCHAR greater
ENCODING 62
SWIDTH 500 0
DWIDTH 20 0
BBX 20 18 0 0
BITMAP
F80000
F80000
F80000
07C000
07C000
07FE00
003E00
003E00
0001F0
0001F0
003FF0
003E00
003E00
07C000
07C000
FFC000
F80000
F80000
ENDCHAR
STARTCHAR question
ENCODING 63
SWIDTH 500 0
DWIDTH 20 0
BBX 13 23 2 0
BITMAP
1FE0
1FE0
1FE0
E038
E038
E038
E038
E038
0038
0038
00F8
00E0
00E0
0700
0700
0700
0700
0700
0000
0000
0700
0700
0700
ENDCHAR
STARTCHAR at
ENCODING 64
SWIDTH 500 0
DWIDTH 20 0
BBX 16 25 2 0
BITMAP
1FF8
1FF8
FFFF
E007
E007
E007
E007
E007
E007
E007
E0FF
E0FF
E0FF
E0E7
E0E7
E0FF
E0FF
E0FF
E0FF
E0FF
E000
E000
FFFF
1FFF
1FFF
ENDCHAR
STARTCHAR A
ENCODING 65
SWIDTH 500 0
DWIDTH 20 0
BBX 16 23 2 0
BITMAP
07E0
07E0
07E0
1C38
1C38
1C38
1C38
1C38
E007
E007
E007
E007
E007
FFFF
FFFF
FFFF
E007
E007
E007
E007
E007
E007
E007
ENDCHAR
STARTCHAR B
ENCODING 66
SWIDTH 500 0
DWIDTH 20 0
BBX 16 23 2 0
BITMAP
FFF8
FFF8
FFF8
E007
E007
E007
E007
E007
E007
E007
FFFF
FFF8
FFF8
E007
E007
E007
E007
E007
E007
E007
FFFF
FFF8
FFF8
ENDCHAR
STARTCHAR C
ENCODING 67
SWIDTH 500 0
DWIDTH 20 0
BBX 16 23 2 0
BITMAP
1FF8
1FF8
1FF8
E007
E007
E007
E000
E000
E000
E000
E000
E000
E000
E000
E000
E000
E000
E000
E007
E007
FFFF
1FF8
1FF8
ENDCHAR
STARTCHAR D
ENCODING 68
SWIDTH 500 0
DWIDTH 20 0
BBX 16 23 2 0
BITMAP
FFE0
FFE0
FFE0
E038
E038
E03F
E007
E007
E007
E007
E007
E007
E007
E007
E007
E007
E007
E007
E038
E038
FFF8
FFE0
FFE0
ENDCHAR
STARTCHAR E
ENCODING 69
SWIDTH 500 0
DWIDTH 20 0
BBX 16 23 2 0
BITMAP
FFFF
FFFF
FFFF
E000
E000
E000
E000
E000
E000
E000
FFF8
FFF8
FFF8
E000
E000
E000
E000
E000
E000
E000
FFFF
FFFF
FFFF
ENDCHAR
STARTCHAR F
ENCODING 70
SWIDTH 500 0
DWIDTH 20 0
BBX 16 23 2 0
BITMAP
FFFF
FFFF
FFFF
E000
E000
E000
E000
E000
E000
E000
FFF8
FFF8
FFF8
E000
E000
E000
E000
E000
E000
E000
E000
E000
E000
ENDCHAR
STARTCHAR G
ENCODING 71
SWIDTH 500 0
DWIDTH 20 0
BBX 16 23 2 0
BITMAP
1FF8
1FF8
1FF8
E007
E007
E007
E000
E000
E000
E000
E0FF
E0FF
E0FF
E007
E007
E007
E007
E007
E007
E007
FFFF
1FF8
1FF8
ENDCHAR
STARTCHAR H
ENCODING 72
SWIDTH 500 0
DWIDTH 20 0
BBX 16 23 2 0
BITMAP
E007
E007
E007
E007
E007
E007
E007
E007
E007
E007
FFFF
FFFF
FFFF
E007
E007
E007
E007
E007
E007
E007
E007
E007
E007
ENDCHAR
STARTCHAR I
ENCODING 73
SWIDTH 500 0
DWIDTH 20 0
BBX 8 23 5 0
BITMAP
FF
FF
FF
38
38
38
38
38
38
38
38
38
38
38
38
38
38
38
38
38
FF
FF
FF
ENDCHAR
STARTCHAR J
ENCODING 74
SWIDTH 500 0
DWIDTH 20 0
BBX 13 23 2 0
BITMAP
0038
0038
0038
0038
0038
0038
0038
0038
0038
0038
0038
0038
0038
0038
0038
E038
E038
E038
E038
E038
FFF8
1FE0
1FE0
ENDCHAR
STARTCHAR K
ENCODING 75
SWIDTH 500 0
DWIDTH 20 0
BBX 16 23 2 0
BITMAP
E007
E007
E007
E038
E038
E0F8
E0E0
E0E0
E700
E700
FF00
FC00
FC00
E700
E700
E7E0
E0E0
E0E0
E038
E038
E03F
E007
E007
ENDCHAR
STARTCHAR L
ENCODING 76
SWIDTH 500 0
DWIDTH 20 0
BBX 13 23 2 0
BITMAP
E000
E000
E000
E000
E000
E000
E000
E000
E000
E000
E000
E000
E000
E000
E000
E000
E000
E000
E000
E000
FFF8
FFF8
FFF8
ENDCHAR
STARTCHAR M
ENCODING 77
SWIDTH 500 0
DWIDTH 20 0
BBX 18 23 0 0
BITMAP
E001C0
E001C0
E001C0
F80FC0
F80FC0
FF3FC0
E739C0
E739C0
E1C1C0
E1C1C0
E1C1C0
E001C0
E001C0
E001C0
E001C0
E001C0
E001C0
E001C0
E001C0
E001C0
E001C0
E001C0
E001C0
ENDCHAR
STARTCHAR N
ENCODING 78
SWIDTH 500 0
DWIDTH 20 0
BBX 16 23 2 0
BITMAP
E007
E007
E007
FC07
FC07
FF07
E707
E707
E707
E707
E7E7
E0E7
E0E7
E0E7
E0E7
E0FF
E03F
E03F
E007
E007
E007
E007
E007
ENDCHAR
STARTCHAR O
ENCODING 79
SWIDTH 500 0
DWIDTH 20 0
BBX 16 23 2 0
BITMAP
07E0
07E0
07E0
1C38
1C38
FC3F
E007
E007
E007
E007
E007
E007
E007
E007
E007
E007
E007
E007
1C38
1C38
1FF8
07E0
07E0
ENDCHAR
STARTCHAR P
ENCODING 80
SWIDTH 500 0
DWIDTH 20 0
BBX 16 23 2 0
BITMAP
FFE0
FFE0
FFE0
E038
E038
E03F
E007
E007
E007
E007
E03F
E038
E038
FFE0
FFE0
FFE0
E000
E000
E000
E000
E000
E000
E000
ENDCHAR
STARTCHAR Q
ENCODING 81
SWIDTH 500 0
DWIDTH 20 0
BBX 18 23 0 0
BITMAP
07C000
07C000
07C000
383800
383800
F83E00
E00E00
E00E00
E00E00
E00E00
E00E00
E00E00
E00E00
E00E00
E00E00
E1CE00
E1CE00
E1CE00
383800
383800
3FFFC0
07CFC0
07CFC0
ENDCHAR
STARTCHAR R
ENCODING 82
SWIDTH 500 0
DWIDTH 20 0
BBX 16 23 2 0
BITMAP
FFF8
FFF8
FFF8
E007
E007
E007
E007
E007
E038
E038
FFF8
FFE0
FFE0
E038
E038
E03F
E007
E007
E007
E007
E007
E007
E007
ENDCHAR
STARTCHAR S
ENCODING 83
SWIDTH 500 0
DWIDTH 20 0
BBX 16 23 2 0
BITMAP
1FF8
1FF8
1FF8
E007
E007
E007
E000
E000
1C00
1C00
1FE0
07E0
07E0
0038
0038
003F
0007
0007
E007
E007
FFFF
1FF8
1FF8
ENDCHAR
STARTCHAR T
ENCODING 84
SWIDTH 500 0
DWIDTH 20 0
BBX 18 23 0 0
BITMAP
FFFFC0
FFFFC0
FFFFC0
01C000
01C000
01C000
01C000
01C000
01C000
01C000
01C000
01C000
01C000
01C000
01C000
01C000
01C000
01C000
01C000
01C000
01C000
01C000
01C000
ENDCHAR
STARTCHAR U
ENCODING 85
SWIDTH 500 0
DWIDTH 20 0
BBX 16 23 2 0
BITMAP
E007
E007
E007
E007
E007
E007
E007
E007
E007
E007
E007
E007
E007
E007
E007
E007
E007
E007
E007
E007
FFFF
1FF8
1FF8
ENDCHAR
STARTCHAR V
ENCODING 86
SWIDTH 500 0
DWIDTH 20 0
BBX 18 23 0 0
BITMAP
E001C0
E001C0
E001C0
E001C0
E001C0
E001C0
E001C0
E001C0
380E00
380E00
380E00
380E00
380E00
380E00
380E00
3F3E00
073800
073800
073800
073800
07F800
01C000
01C000
ENDCHAR
STARTCHAR W
ENCODING 87
SWIDTH 500 0
DWIDTH 20 0
BBX 18 23 0 0
BITMAP
E001C0
E001C0
E001C0
E001C0
E001C0
E001C0
E001C0
E001C0
E1C1C0
E1C1C0
E1C1C0
E1C1C0
E1C1C0
E739C0
E739C0
E739C0
E739C0
E739C0
380E00
380E00
380E00
380E00
380E00
ENDCHAR
STARTCHAR X
ENCODING 88
SWIDTH 500 0
DWIDTH 20 0
BBX 18 23 0 0
BITMAP
E001C0
E001C0
E001C0
380E00
380E00
380E00
380E00
380E00
073800
073800
07F800
01C000
01C000
073800
073800
3F3E00
380E00
380E00
380E00
380E00
F80FC0
E001C0
E001C0
ENDCHAR
STARTCHAR Y
ENCODING 89
SWIDTH 500 0
DWIDTH 20 0
BBX 18 23 0 0
BITMAP
E001C0
E001C0
E001C0
E001C0
E001C0
F80FC0
380E00
380E00
380E00
380E00
3F3E00
073800
073800
01C000
01C000
01C000
01C000
01C000
01C000
01C000
01C000
01C000
01C000
ENDCHAR
STARTCHAR Z
ENCODING 90
SWIDTH 500 0
DWIDTH 20 0
BBX 18 23 0 0
BITMAP
FFFFC0
FFFFC0
FFFFC0
0001C0
0001C0
000FC0
000E00
000E00
003800
003800
01F800
01C000
01C000
070000
070000
3F0000
380000
380000
E00000
E00000
FFFFC0
FFFFC0
FFFFC0
ENDCHAR
STARTCHAR bracketleft
ENCODING 91
SWIDTH 500 0
DWIDTH 20 0
BBX 6 30 7 -5
BITMAP
FC
FC
FC
E0
E0
E0
E0
E0
E0
E0
E0
E0
E0
E0
E0
E0
E0
E0
E0
E0
E0
E0
E0
E0
E0
E0
E0
FC
FC
FC
ENDCHAR
STARTCHAR backslash
ENCODING 92
SWIDTH 500 0
DWIDTH 20 0
BBX 10 20 5 0
BITMAP
E000
E000
E000
E000
E000
3800
3800
3800
3800
3800
0700
0700
0700
0700
0700
01C0
01C0
01C0
01C0
01C0
ENDCHAR
STARTCHAR bracketright
ENCODING 93
SWIDTH 500 0
DWIDTH 20 0
BBX 6 30 7 -5
BITMAP
FC
FC
FC
1C
1C
1C
1C
1C
1C
1C
1C
1C
1C
1C
1C
1C
1C
1C
1C
1C
1C
1C
1C
1C
1C
1C
1C
FC
FC
FC
ENDCHAR
STARTCHAR asciicircum
ENCODING 94
SWIDTH 500 0
DWIDTH 20 0
BBX 16 8 2 22
BITMAP
07E0
07E0
1FF8
1C38
1C38
E007
E007
E007
ENDCHAR
STARTCHAR underscore
ENCODING 95
SWIDTH 500 0
DWIDTH 20 0
BBX 18 3 0 -3
BITMAP
FFFFC0
FFFFC0
FFFFC0
ENDCHAR
STARTCHAR grave
ENCODING 96
SWIDTH 500 0
DWIDTH 20 0
BBX 8 6 5 22
BITMAP
F8
F8
F8
07
07
07
ENDCHAR
STARTCHAR a
ENCODING 97
SWIDTH 500 0
DWIDTH 20 0
BBX 16 15 2 0
BITMAP
1FE0
1FE0
FFF8
E038
E038
1FF8
1FF8
FFF8
E038
E038
E038
E038
FFFF
1FE7
1FE7
ENDCHAR
STARTCHAR b
ENCODING 98
SWIDTH 500 0
DWIDTH 20 0
BBX 13 23 2 0
BITMAP
E000
E000
E000
E000
E000
E000
E000
E000
E7E0
E7E0
FFF8
FC38
FC38
E038
E038
E038
E038
E038
FC38
FC38
FFF8
E7E0
E7E0
ENDCHAR
STARTCHAR c
ENCODING 99
SWIDTH 500 0
DWIDTH 20 0
BBX 13 15 2 0
BITMAP
1FE0
1FE0
FFF8
E038
E038
E000
E000
E000
E000
E000
E038
E038
FFF8
1FE0
1FE0
ENDCHAR
STARTCHAR d
ENCODING 100
SWIDTH 500 0
DWIDTH 20 0
BBX 13 23 2 0
BITMAP
0038
0038
0038
0038
0038
0038
0038
0038
1F38
1F38
FFF8
E0F8
E0F8
E038
E038
E038
E038
E038
E0F8
E0F8
FFF8
1F38
1F38
ENDCHAR
STARTCHAR e
ENCODING 101
SWIDTH 500 0
DWIDTH 20 0
BBX 13 15 2 0
BITMAP
1FE0
1FE0
FFF8
E038
E038
FFF8
FFF8
FFF8
E000
E000
E038
E038
FFF8
1FE0
1FE0
ENDCHAR
STARTCHAR f
ENCODING 102
SWIDTH 500 0
DWIDTH 20 0
BBX 8 23 5 0
BITMAP
07
07
07
38
38
FF
FF
FF
38
38
38
38
38
38
38
38
38
38
38
38
38
38
38
ENDCHAR
STARTCHAR g
ENCODING 103
SWIDTH 500 0
DWIDTH 20 0
BBX 13 20 2 -5
BITMAP
1FF8
1FF8
FFF8
E038
E038
E038
E038
E038
E038
E038
1FF8
1FF8
1FF8
0038
0038
E038
E038
FFF8
1FE0
1FE0
ENDCHAR
STARTCHAR h
ENCODING 104
SWIDTH 500 0
DWIDTH 20 0
BBX 13 23 2 0
BITMAP
E000
E000
E000
E000
E000
E000
E000
E000
FFE0
FFE0
FFF8
E038
E038
E038
E038
E038
E038
E038
E038
E038
E038
E038
E038
ENDCHAR
STARTCHAR i
ENCODING 105
SWIDTH 500 0
DWIDTH 20 0
BBX 8 20 5 0
BITMAP
07
07
07
00
00
FF
FF
FF
07
07
07
07
07
07
07
07
07
07
07
07
ENDCHAR
STARTCHAR j
ENCODING 106
SWIDTH 500 0
DWIDTH 20 0
BBX 8 25 5 -5
BITMAP
07
07
07
00
00
07
07
07
07
07
07
07
07
07
07
07
07
07
07
07
38
38
F8
E0
E0
ENDCHAR
STARTCHAR k
ENCODING 107
SWIDTH 500 0
DWIDTH 20 0
BBX 13 20 2 0
BITMAP
E000
E000
E000
E000
E000
E038
E038
E0F8
E0E0
E0E0
E700
E700
FF00
FF00
FF00
E0E0
E0E0
E0F8
E038
E038
ENDCHAR
STARTCHAR l
ENCODING 108
SWIDTH 500 0
DWIDTH 20 0
BBX 10 23 5 0
BITMAP
FF00
FF00
FF00
0700
0700
0700
0700
0700
0700
0700
0700
0700
0700
0700
0700
0700
0700
0700
0700
0700
07C0
07C0
07C0
ENDCHAR
STARTCHAR m
ENCODING 109
SWIDTH 500 0
DWIDTH 20 0
BBX 18 15 0 0
BITMAP
FF3E00
FF3E00
FFFFC0
E1C1C0
E1C1C0
E1C1C0
E1C1C0
E1C1C0
E1C1C0
E1C1C0
E1C1C0
E1C1C0
E1C1C0
E1C1C0
E1C1C0
ENDCHAR
STARTCHAR n
ENCODING 110
SWIDTH 500 0
DWIDTH 20 0
BBX 13 15 2 0
BITMAP
FFE0
FFE0
FFF8
E038
E038
E038
E038
E038
E038
E038
E038
E038
E038
E038
E038
ENDCHAR
STARTCHAR o
ENCODING 111
SWIDTH 500 0
DWIDTH 20 0
BBX 13 15 2 0
BITMAP
1FE0
1FE0
FFF8
E038
E038
E038
E038
E038
E038
E038
E038
E038
FFF8
1FE0
1FE0
ENDCHAR
STARTCHAR p
ENCODING 112
SWIDTH 500 0
DWIDTH 20 0
BBX 13 20 2 -5
BITMAP
E7E0
E7E0
FFF8
FC38
FC38
E038
E038
E038
E038
E038
FC38
FC38
FFF8
E7E0
E7E0
E000
E000
E000
E000
E000
ENDCHAR
STARTCHAR q
ENCODING 113
SWIDTH 500 0
DWIDTH 20 0
BBX 13 20 2 -5
BITMAP
1F38
1F38
FFF8
E0F8
E0F8
E038
E038
E038
E038
E038
E0F8
E0F8
FFF8
1F38
1F38
0038
0038
0038
0038
0038
ENDCHAR
STARTCHAR r
ENCODING 114
SWIDTH 500 0
DWIDTH 20 0
BBX 10 15 5 0
BITMAP
E7C0
E7C0
FFC0
F800
F800
E000
E000
E000
E000
E000
E000
E000
E000
E000
E000
ENDCHAR
STARTCHAR s
ENCODING 115
SWIDTH 500 0
DWIDTH 20 0
BBX 13 15 2 0
BITMAP
1FE0
1FE0
FFF8
E038
E038
1F00
1F00
1FE0
00E0
00E0
E038
E038
FFF8
1FE0
1FE0
ENDCHAR
STARTCHAR t
ENCODING 116
SWIDTH 500 0
DWIDTH 20 0
BBX 10 18 5 0
BITMAP
3800
3800
3800
FF00
FF00
FF00
3800
3800
3800
3800
3800
3800
3800
3800
3800
3FC0
07C0
07C0
ENDCHAR
STARTCHAR u
ENCODING 117
SWIDTH 500 0
DWIDTH 20 0
BBX 13 15 2 0
BITMAP
E038
E038
E038
E038
E038
E038
E038
E038
E038
E038
E038
E038
FFF8
1FF8
1FF8
ENDCHAR
STARTCHAR v
ENCODING 118
SWIDTH 500 0
DWIDTH 20 0
BBX 13 15 2 0
BITMAP
E038
E038
E038
E038
E038
E038
E038
FCF8
1CE0
1CE0
1CE0
1CE0
1FE0
0700
0700
ENDCHAR
STARTCHAR w
ENCODING 119
SWIDTH 500 0
DWIDTH 20 0
BBX 13 15 2 0
BITMAP
E038
E038
E038
E038
E038
E738
E738
E738
E738
E738
E738
E738
FFF8
1CE0
1CE0
ENDCHAR
STARTCHAR x
ENCODING 120
SWIDTH 500 0
DWIDTH 20 0
BBX 13 15 2 0
BITMAP
E038
E038
FCF8
1CE0
1CE0
0700
0700
0700
0700
0700
1CE0
1CE0
FCF8
E038
E038
ENDCHAR
STARTCHAR y
ENCODING 121
SWIDTH 500 0
DWIDTH 20 0
BBX 16 20 2 -5
BITMAP
E007
E007
FC3F
1C38
1C38
1C38
1C38
1C38
1C38
1C38
07E0
07E0
07E0
00E0
00E0
0700
0700
FF00
FC00
FC00
ENDCHAR
STARTCHAR z
ENCODING 122
SWIDTH 500 0
DWIDTH 20 0
BBX 13 15 2 0
BITMAP
FFF8
FFF8
FFF8
00E0
00E0
0700
0700
1F00
1C00
1C00
E000
E000
FFF8
FFF8
FFF8
ENDCHAR
STARTCHAR braceleft
ENCODING 123
SWIDTH 500 0
DWIDTH 20 0
BBX 16 33 2 -5
BITMAP
003F
003F
003F
00E0
00E0
00E0
00E0
00E0
00E0
00E0
00E0
00E0
00E0
00E0
00E0
FFE0
FF00
FF00
00E0
00E0
00E0
00E0
00E0
00E0
00E0
00E0
00E0
00E0
00E0
00E0
00FF
003F
003F
ENDCHAR
STARTCHAR bar
ENCODING 124
SWIDTH 500 0
DWIDTH 20 0
BBX 3 33 7 -5
BITMAP
E0
E0
E0
E0
E0
E0
E0
E0
E0
E0
E0
E0
E0
E0
E0
E0
E0
E0
E0
E0
E0
E0
E0
E0
E0
E0
E0
E0
E0
E0
E0
E0
E0
ENDCHAR
STARTCHAR braceright
ENCODING 125
SWIDTH 500 0
DWIDTH 20 0
BBX 18 33 0 -5
BITMAP
FF0000
FF0000
FF0000
01C000
01C000
01C000
01C000
01C000
01C000
01C000
01C000
01C000
01C000
01C000
01C000
01FFC0
003FC0
003FC0
01C000
01C000
01C000
01C000
01C000
01C000
01C000
01C000
01C000
01C000
01C000
01C000
FFC000
FF0000
FF0000
ENDCHAR
STARTCHAR asciitilde
ENCODING 126
SWIDTH 500 0
DWIDTH 20 0
BBX 18 8 0 5
BITMAP
3F0000
3F0000
3F0000
E1C1C0
E1C1C0
E1FFC0
003E00
003E00
ENDCHAR
STARTCHAR uni00A0
ENCODING 160
SWIDTH 500 0
DWIDTH 20 0
BBX 1 1 0 0
BITMAP
00
ENDCHAR
STARTCHAR sterling
ENCODING 163
SWIDTH 500 0
DWIDTH 20 0
BBX 16 25 2 0
BITMAP
00F8
00F8
07F8
0700
0700
1F00
1F00
1F00
1F00
1F00
FFF8
FFF8
FFF8
1F00
1F00
1F00
1F00
1F00
1F00
1F00
1F00
1F00
FFFF
E0FF
E0FF
ENDCHAR
STARTCHAR currency
ENCODING 164
SWIDTH 500 0
DWIDTH 20 0
BBX 23 23 0 0
BITMAP
07FFC0
07FFC0
07FFC0
380070
380070
F9FE7E
E1FE0E
E1FE0E
E7000E
E7000E
E73FCE
E73FCE
E73FCE
E701CE
E701CE
E7FFCE
E1FE0E
E1FE0E
380070
380070
3FFFF0
07FFC0
07FFC0
ENDCHAR
STARTCHAR yen
ENCODING 165
SWIDTH 500 0
DWIDTH 20 0
BBX 18 28 0 0
BITMAP
380E00
380E00
380E00
380E00
380E00
380E00
380E00
380E00
380E00
380E00
3F3E00
073800
073800
01C000
01C000
FFFFC0
FFFFC0
FFFFC0
01C000
01C000
FFFFC0
FFFFC0
FFFFC0
01C000
01C000
01C000
01C000
01C000
ENDCHAR
STARTCHAR brokenbar
ENCODING 166
SWIDTH 500 0
DWIDTH 20 0
BBX 3 33 7 -5
BITMAP
E0
E0
E0
E0
E0
E0
E0
E0
E0
E0
E0
E0
E0
E0
E0
E0
00
00
00
00
E0
E0
E0
E0
E0
E0
E0
E0
E0
E0
E0
E0
E0
ENDCHAR
STARTCHAR guillemotleft
ENCODING 171
SWIDTH 500 0
DWIDTH 20 0
BBX 15 13 0 2
BITMAP
070E
070E
3F3E
3838
3838
E1C0
E1C0
F9F8
3838
3838
070E
070E
070E
ENDCHAR
STARTCHAR degree
ENCODING 176
SWIDTH 500 0
DWIDTH 20 0
BBX 10 13 0 15
BITMAP
3F00
3F00
3F00
FFC0
FFC0
FFC0
E1C0
E1C0
FFC0
FFC0
FFC0
3F00
3F00
ENDCHAR
STARTCHAR periodcentered
ENCODING 183
SWIDTH 500 0
DWIDTH 20 0
BBX 3 3 0 7
BITMAP
E0
E0
E0
ENDCHAR
STARTCHAR guillemotright
ENCODING 187
SWIDTH 500 0
DWIDTH 20 0
BBX 15 13 0 2
BITMAP
E1C0
E1C0
F9F8
3838
3838
070E
070E
3F3E
3838
3838
E1C0
E1C0
E1C0
ENDCHAR
STARTCHAR Oacute
ENCODING 211
SWIDTH 500 0
DWIDTH 20 0
BBX 15 30 0 0
BITMAP
01C0
01C0
07C0
0700
0700
0000
0000
07C0
07C0
07C0
3838
3838
F83E
E00E
E00E
E00E
E00E
E00E
E00E
E00E
E00E
E00E
E00E
E00E
E00E
3838
3838
3FF8
07C0
07C0
ENDCHAR
STARTCHAR multiply
ENCODING 215
SWIDTH 500 0
DWIDTH 20 0
BBX 11 11 2 2
BITMAP
E0E0
E0E0
E0E0
1F00
1F00
1F00
1F00
1F00
E0E0
E0E0
E0E0
ENDCHAR
STARTCHAR oacute
ENCODING 243
SWIDTH 500 0
DWIDTH 20 0
BBX 13 23 0 0
BITMAP
01C0
01C0
01C0
0700
0700
0700
0000
0000
3FC0
3FC0
FFF8
E038
E038
E038
E038
E038
E038
E038
E038
E038
FFF8
3FC0
3FC0
ENDCHAR
STARTCHAR divide
ENCODING 247
SWIDTH 500 0
DWIDTH 20 0
BBX 10 13 0 5
BITMAP
3F00
3F00
3F00
0000
0000
FFC0
FFC0
FFC0
0000
0000
3F00
3F00
3F00
ENDCHAR
STARTCHAR Aogonek
ENCODING 260
SWIDTH 500 0
DWIDTH 20 0
BBX 15 28 0 -5
BITMAP
07C0
07C0
07C0
3838
3838
3838
3838
3838
E00E
E00E
E00E
E00E
E00E
FFFE
FFFE
FFFE
E00E
E00E
E00E
E00E
E00E
E00E
E00E
0038
0038
003E
000E
000E
ENDCHAR
STARTCHAR aogonek
ENCODING 261
SWIDTH 500 0
DWIDTH 20 0
BBX 15 20 0 -5
BITMAP
3FC0
3FC0
FFF8
E038
E038
3FF8
3FF8
FFF8
E038
E038
E1F8
E1F8
FFFE
3F0E
3F0E
0038
0038
003E
000E
000E
ENDCHAR
STARTCHAR Cacute
ENCODING 262
SWIDTH 500 0
DWIDTH 20 0
BBX 15 30 0 0
BITMAP
01C0
01C0
07C0
0700
0700
0000
0000
3FF8
3FF8
3FF8
E00E
E00E
E00E
E000
E000
E000
E000
E000
E000
E000
E000
E000
E000
E000
E000
E00E
E00E
FFFE
3FF8
3FF8
ENDCHAR
STARTCHAR cacute
ENCODING 263
SWIDTH 500 0
DWIDTH 20 0
BBX 13 23 0 0
BITMAP
01C0
01C0
01C0
0700
0700
0700
0000
0000
3FC0
3FC0
FFF8
E038
E038
E000
E000
E000
E000
E000
E038
E038
FFF8
3FC0
3FC0
ENDCHAR
STARTCHAR Eogonek
ENCODING 280
SWIDTH 500 0
DWIDTH 20 0
BBX 15 28 0 -5
BITMAP
FFFE
FFFE
FFFE
E000
E000
E000
E000
E000
E000
E000
FFF8
FFF8
FFF8
E000
E000
E000
E000
E000
E000
E000
FFFE
FFFE
FFFE
0038
0038
003E
000E
000E
ENDCHAR
STARTCHAR eogonek
ENCODING 281
SWIDTH 500 0
DWIDTH 20 0
BBX 13 20 0 -5
BITMAP
3FC0
3FC0
FFF8
E038
E038
FFF8
FFF8
FFF8
E000
E000
E038
E038
FFF8
3FC0
3FC0
01C0
01C0
01F8
0038
0038
ENDCHAR
STARTCHAR Lslash
ENCODING 321
SWIDTH 500 0
DWIDTH 20 0
BBX 15 23 0 0
BITMAP
3800
3800
3800
3800
3800
39C0
39C0
39C0
3F00
3F00
3F00
3800
3800
F800
F800
F800
3800
3800
3800
3800
3FFE
3FFE
3FFE
ENDCHAR
STARTCHAR lslash
ENCODING 322
SWIDTH 500 0
DWIDTH 20 0
BBX 10 23 0 0
BITMAP
3800
3800
3800
3800
3800
39C0
39C0
39C0
3F00
3F00
3F00
3800
3800
F800
F800
F800
3800
3800
3800
3800
3800
3800
3800
ENDCHAR
STARTCHAR Nacute
ENCODING 323
SWIDTH 500 0
DWIDTH 20 0
BBX 15 30 0 0
BITMAP
01C0
01C0
07C0
0700
0700
0000
0000
E00E
E00E
E00E
F80E
F80E
FF0E
E70E
E70E
E70E
E70E
E7CE
E1CE
E1CE
E1CE
E1CE
E1FE
E03E
E03E
E00E
E00E
E00E
E00E
E00E
ENDCHAR
STARTCHAR nacute
ENCODING 324
SWIDTH 500 0
DWIDTH 20 0
BBX 13 23 0 0
BITMAP
01C0
01C0
01C0
0700
0700
0700
0000
0000
FFC0
FFC0
FFF8
E038
E038
E038
E038
E038
E038
E038
E038
E038
E038
E038
E038
ENDCHAR
STARTCHAR Sacute
ENCODING 346
SWIDTH 500 0
DWIDTH 20 0
BBX 15 30 0 0
BITMAP
01F8
01F8
07F8
07C0
07C0
0000
0000
3FF8
3FF8
3FF8
E00E
E00E
E00E
E000
E000
3800
3800
3FC0
07C0
07C0
0038
0038
003E
000E
000E
E00E
E00E
FFFE
3FF8
3FF8
ENDCHAR
STARTCHAR sacute
ENCODING 347
SWIDTH 500 0
DWIDTH 20 0
BBX 13 23 0 0
BITMAP
01C0
01C0
01C0
0700
0700
0700
0000
0000
3FC0
3FC0
FFF8
E038
E038
3F00
3F00
3FC0
01C0
01C0
E038
E038
FFF8
3FC0
3FC0
ENDCHAR
STARTCHAR Zacute
ENCODING 377
SWIDTH 500 0
DWIDTH 20 0
BBX 18 30 0 0
BITMAP
003800
003800
01F800
01C000
01C000
000000
000000
FFFFC0
FFFFC0
FFFFC0
0001C0
0001C0
000FC0
000E00
000E00
003800
003800
01F800
01C000
01C000
070000
070000
3F0000
380000
380000
E00000
E00000
FFFFC0
FFFFC0
FFFFC0
ENDCHAR
STARTCHAR zacute
ENCODING 378
SWIDTH 500 0
DWIDTH 20 0
BBX 13 23 0 0
BITMAP
01C0
01C0
01C0
0700
0700
0700
0000
0000
FFF8
FFF8
FFF8
01C0
01C0
0700
0700
3F00
3800
3800
E000
E000
FFF8
FFF8
FFF8
ENDCHAR
STARTCHAR Zdotaccent
ENCODING 379
SWIDTH 500 0
DWIDTH 20 0
BBX 18 30 0 0
BITMAP
01F800
01F800
01F800
01F800
01F800
000000
000000
FFFFC0
FFFFC0
FFFFC0
0001C0
0001C0
000FC0
000E00
000E00
003800
003800
01F800
01C000
01C000
070000
070000
3F0000
380000
380000
E00000
E00000
FFFFC0
FFFFC0
FFFFC0
ENDCHAR
STARTCHAR zdotaccent
ENCODING 380
SWIDTH 500 0
DWIDTH 20 0
BBX 13 20 0 0
BITMAP
0700
0700
0700
0000
0000
FFF8
FFF8
FFF8
01C0
01C0
0700
0700
3F00
3800
3800
E000
E000
FFF8
FFF8
FFF8
ENDCHAR
STARTCHAR uni2000
ENCODING 8192
SWIDTH 500 0
DWIDTH 20 0
BBX 1 1 0 0
BITMAP
00
ENDCHAR
STARTCHAR uni2001
ENCODING 8193
SWIDTH 500 0
DWIDTH 20 0
BBX 1 1 0 0
BITMAP
00
ENDCHAR
STARTCHAR uni2002
ENCODING 8194
SWIDTH 500 0
DWIDTH 20 0
BBX 1 1 0 0
BITMAP
00
ENDCHAR
STARTCHAR uni2003
ENCODING 8195
SWIDTH 500 0
DWIDTH 20 0
BBX 1 1 0 0
BITMAP
00
ENDCHAR
STARTCHAR uni2004
ENCODING 8196
SWIDTH 500 0
DWIDTH 20 0
BBX 1 1 0 0
BITMAP
00
ENDCHAR
STARTCHAR uni2005
ENCODING 8197
SWIDTH 500 0
DWIDTH 20 0
BBX 1 1 0 0
BITMAP
00
ENDCHAR
STARTCHAR uni2006
ENCODING 8198
SWIDTH 500 0
DWIDTH 20 0
BBX 1 1 0 0
BITMAP
00
ENDCHAR
STARTCHAR uni2007
ENCODING 8199
SWIDTH 500 0
DWIDTH 20 0
BBX 1 1 0 0
BITMAP
00
ENDCHAR
STARTCHAR uni2008
ENCODING 8200
SWIDTH 500 0
DWIDTH 20 0
BBX 1 1 0 0
BITMAP
00
ENDCHAR
STARTCHAR uni2009
ENCODING 8201
SWIDTH 500 0
DWIDTH 20 0
BBX 1 1 0 0
BITMAP
00
ENDCHAR
STARTCHAR uni200A
ENCODING 8202
SWIDTH 500 0
DWIDTH 20 0
BBX 1 1 0 0
BITMAP
00
ENDCHAR
STARTCHAR emdash
ENCODING 8212
SWIDTH 500 0
DWIDTH 20 0
BBX 20 3 0 7
BITMAP
FFFFF0
FFFFF0
FFFFF0
ENDCHAR
STARTCHAR quoteleft
ENCODING 8216
SWIDTH 500 0
DWIDTH 20 0
BBX 5 10 0 15
BITMAP
38
38
F8
E0
E0
F8
F8
F8
F8
F8
ENDCHAR
STARTCHAR quoteright
ENCODING 8217
SWIDTH 500 0
DWIDTH 20 0
BBX 5 10 0 15
BITMAP
F8
F8
F8
F8
F8
38
38
F8
E0
E0
ENDCHAR
STARTCHAR quotedblleft
ENCODING 8220
SWIDTH 500 0
DWIDTH 20 0
BBX 5 10 0 15
BITMAP
38
38
F8
E0
E0
F8
F8
F8
F8
F8
ENDCHAR
STARTCHAR quotedblright
ENCODING 8221
SWIDTH 500 0
DWIDTH 20 0
BBX 13 10 0 15
BITMAP
F9F8
F9F8
F9F8
F9F8
F9F8
3838
3838
F9F8
E1C0
E1C0
ENDCHAR
STARTCHAR quotedblbase
ENCODING 8222
SWIDTH 500 0
DWIDTH 20 0
BBX 8 6 0 -3
BITMAP
FF
FF
FF
E0
E0
E0
ENDCHAR
STARTCHAR bullet
ENCODING 8226
SWIDTH 500 0
DWIDTH 20 0
BBX 5 3 0 7
BITMAP
F8
F8
F8
ENDCHAR
STARTCHAR ellipsis
ENCODING 8230
SWIDTH 500 0
DWIDTH 20 0
BBX 10 3 0 0
BITMAP
FFC0
FFC0
FFC0
ENDCHAR
STARTCHAR guilsinglleft
ENCODING 8249
SWIDTH 500 0
DWIDTH 20 0
BBX 8 13 0 2
BITMAP
07
07
3F
38
38
E0
E0
F8
38
38
07
07
07
ENDCHAR
STARTCHAR guilsinglright
ENCODING 8250
SWIDTH 500 0
DWIDTH 20 0
BBX 8 13 0 2
BITMAP
E0
E0
F8
38
38
07
07
3F
38
38
E0
E0
E0
ENDCHAR
STARTCHAR Euro
ENCODING 8364
SWIDTH 500 0
DWIDTH 20 0
BBX 16 23 2 0
BITMAP
00F8
00F8
00F8
00F8
00F8
1FFF
1F07
1F07
FFE0
FFE0
FFE0
1F00
1F00
FFE0
FFE0
FFE0
1F00
1F00
0707
0707
07FF
00F8
00F8
ENDCHAR
STARTCHAR uni3000
ENCODING 12288
SWIDTH 500 0
DWIDTH 20 0
BBX 1 1 0 0
BITMAP
00
ENDCHAR
STARTCHAR .notdef
ENCODING -1
SWIDTH 365 0
DWIDTH 15 0
BBX 10 26 1 0
BITMAP
FFC0
8040
8040
8040
8040
8040
8040
8040
8040
8040
8040
8040
8040
8040
8040
8040
8040
8040
8040
8040
8040
8040
8040
8040
8040
FFC0
ENDCHAR
STARTCHAR .null
ENCODING -1
SWIDTH 0 0
DWIDTH 0 0
BBX 1 1 0 0
BITMAP
00
ENDCHAR
STARTCHAR nonmarkingreturn
ENCODING -1
SWIDTH 333 0
DWIDTH 13 0
BBX 1 1 0 0
BITMAP
00
ENDCHAR
ENDFONT
