STARTFONT 2.1
FONT -FontForge-FF8-Medium-R-Normal--32-310-75-75-P-158-ISO10646-1
SIZE 31 75 75
FONTBOUNDINGBOX 18 27 0 -3
COMMENT "Generated by fontforge, http://fontforge.sourceforge.net"
COMMENT "Tristanto"
STARTPROPERTIES 40
FOUNDRY "FontForge"
FAMILY_NAME "FF8"
WEIGHT_NAME "Medium"
SLANT "R"
SETWIDTH_NAME "Normal"
ADD_STYLE_NAME ""
PIXEL_SIZE 32
POINT_SIZE 310
RESOLUTION_X 75
RESOLUTION_Y 75
SPACING "P"
AVERAGE_WIDTH 158
CHARSET_REGISTRY "ISO10646"
CHARSET_ENCODING "1"
FONTNAME_REGISTRY ""
CHARSET_COLLECTIONS "ISO10646-1"
FONT_NAME "FF8"
FACE_NAME "FF8"
COPYRIGHT "Tristanto"
FONT_VERSION "001.000"
FONT_ASCENT 24
FONT_DESCENT 8
UNDERLINE_POSITION -5
UNDERLINE_THICKNESS 2
X_HEIGHT 11
CAP_HEIGHT 17
RAW_ASCENT 750
RAW_DESCENT 250
NORM_SPACE 16
RELATIVE_WEIGHT 50
RELATIVE_SETWIDTH 50
SUPERSCRIPT_X 0
SUPERSCRIPT_Y 15
SUPERSCRIPT_SIZE 22
SUBSCRIPT_X 0
SUBSCRIPT_Y 4
SUBSCRIPT_SIZE 22
FIGURE_WIDTH 16
AVG_LOWERCASE_WIDTH 160
AVG_UPPERCASE_WIDTH 160
ENDPROPERTIES
CHARS 150
STARTCHAR space
ENCODING 32
SWIDTH 500 0
DWIDTH 16 0
BBX 1 1 0 0
BITMAP
00
ENDCHAR
STARTCHAR exclam
ENCODING 33
SWIDTH 500 0
DWIDTH 16 0
BBX 6 18 4 0
BITMAP
30
30
FC
FC
FC
FC
FC
FC
FC
FC
30
30
30
30
00
00
30
30
ENDCHAR
STARTCHAR quotedbl
ENCODING 34
SWIDTH 500 0
DWIDTH 16 0
BBX 10 8 2 12
BITMAP
F3C0
F3C0
F3C0
F3C0
30C0
30C0
C300
C300
ENDCHAR
STARTCHAR numbersign
ENCODING 35
SWIDTH 500 0
DWIDTH 16 0
BBX 14 14 0 0
BITMAP
0330
0330
0330
0330
3FFC
3FFC
0CC0
0CC0
0CC0
0CC0
FFF0
FFF0
3300
3300
ENDCHAR
STARTCHAR dollar
ENCODING 36
SWIDTH 500 0
DWIDTH 16 0
BBX 10 17 2 -1
BITMAP
0C00
0C00
3F00
3F00
CCC0
CCC0
CC00
CC00
3F00
3F00
0CC0
0CC0
CCC0
CCC0
3F00
3F00
0C00
ENDCHAR
STARTCHAR percent
ENCODING 37
SWIDTH 500 0
DWIDTH 16 0
BBX 14 18 0 0
BITMAP
3030
3030
CC30
CC30
CCC0
CCC0
30C0
30C0
0300
0300
0C30
0C30
0CCC
0CCC
30CC
30CC
3030
3030
ENDCHAR
STARTCHAR ampersand
ENCODING 38
SWIDTH 500 0
DWIDTH 16 0
BBX 14 14 0 0
BITMAP
0F00
0F00
30C0
30C0
30C0
30C0
3F0C
3F0C
C0F0
C0F0
C0F0
C0F0
3F0C
3F0C
ENDCHAR
STARTCHAR quotesingle
ENCODING 39
SWIDTH 500 0
DWIDTH 16 0
BBX 4 8 6 12
BITMAP
F0
F0
F0
F0
30
30
C0
C0
ENDCHAR
STARTCHAR parenleft
ENCODING 40
SWIDTH 500 0
DWIDTH 16 0
BBX 6 25 4 -3
BITMAP
0C
0C
0C
0C
30
30
30
30
C0
C0
C0
C0
C0
C0
C0
C0
C0
C0
30
30
30
3C
0C
0C
0C
ENDCHAR
STARTCHAR parenright
ENCODING 41
SWIDTH 500 0
DWIDTH 16 0
BBX 6 25 4 -3
BITMAP
C0
C0
C0
C0
30
30
30
30
0C
0C
0C
0C
0C
0C
0C
0C
0C
0C
30
30
30
F0
C0
C0
C0
ENDCHAR
STARTCHAR asterisk
ENCODING 42
SWIDTH 500 0
DWIDTH 16 0
BBX 14 14 0 2
BITMAP
0300
0300
C30C
C30C
3330
3330
0FC0
0FC0
3330
3330
C30C
C30C
0300
0300
ENDCHAR
STARTCHAR plus
ENCODING 43
SWIDTH 500 0
DWIDTH 16 0
BBX 10 10 2 2
BITMAP
0C00
0C00
0C00
0C00
FFC0
FFC0
0C00
0C00
0C00
0C00
ENDCHAR
STARTCHAR comma
ENCODING 44
SWIDTH 500 0
DWIDTH 16 0
BBX 4 7 6 -3
BITMAP
F0
F0
F0
F0
30
C0
C0
ENDCHAR
STARTCHAR hyphen
ENCODING 45
SWIDTH 500 0
DWIDTH 16 0
BBX 10 2 2 6
BITMAP
FFC0
FFC0
ENDCHAR
STARTCHAR period
ENCODING 46
SWIDTH 500 0
DWIDTH 16 0
BBX 4 4 6 0
BITMAP
F0
F0
F0
F0
ENDCHAR
STARTCHAR slash
ENCODING 47
SWIDTH 500 0
DWIDTH 16 0
BBX 8 16 4 0
BITMAP
03
03
03
03
0C
0C
0C
0C
30
30
30
30
C0
C0
C0
C0
ENDCHAR
STARTCHAR zero
ENCODING 48
SWIDTH 500 0
DWIDTH 16 0
BBX 12 18 2 0
BITMAP
3FC0
3FC0
C030
C030
C030
C030
CF30
CF30
CF30
CF30
CF30
CF30
C030
C030
C030
C030
3FC0
3FC0
ENDCHAR
STARTCHAR one
ENCODING 49
SWIDTH 500 0
DWIDTH 16 0
BBX 6 18 4 0
BITMAP
0C
0C
3C
3C
CC
CC
0C
0C
0C
0C
0C
0C
0C
0C
0C
0C
0C
0C
ENDCHAR
STARTCHAR two
ENCODING 50
SWIDTH 500 0
DWIDTH 16 0
BBX 12 18 2 0
BITMAP
3FC0
3FC0
C030
C030
C030
C030
0030
0030
00C0
00C0
0300
0300
0C00
0C00
3000
3000
FFF0
FFF0
ENDCHAR
STARTCHAR three
ENCODING 51
SWIDTH 500 0
DWIDTH 16 0
BBX 12 18 2 0
BITMAP
3FC0
3FC0
C030
C030
0030
0030
0030
0030
0FC0
0FC0
0030
0030
0030
0030
C030
C030
3FC0
3FC0
ENDCHAR
STARTCHAR four
ENCODING 52
SWIDTH 500 0
DWIDTH 16 0
BBX 12 18 2 0
BITMAP
03C0
03C0
0CC0
0CC0
30C0
30C0
C0C0
C0C0
C0C0
C0C0
C0C0
C0C0
FFF0
FFF0
00C0
00C0
00C0
00C0
ENDCHAR
STARTCHAR five
ENCODING 53
SWIDTH 500 0
DWIDTH 16 0
BBX 12 18 2 0
BITMAP
FFF0
FFF0
C000
C000
C000
C000
FFC0
FFC0
0030
0030
0030
0030
0030
0030
C030
C030
3FC0
3FC0
ENDCHAR
STARTCHAR six
ENCODING 54
SWIDTH 500 0
DWIDTH 16 0
BBX 12 18 2 0
BITMAP
3FC0
3FC0
C030
C030
C000
C000
FFC0
FFC0
C030
C030
C030
C030
C030
C030
C030
C030
3FC0
3FC0
ENDCHAR
STARTCHAR seven
ENCODING 55
SWIDTH 500 0
DWIDTH 16 0
BBX 12 18 2 0
BITMAP
FFF0
FFF0
0030
0030
0030
0030
00C0
00C0
0300
0300
0C00
0C00
0C00
0C00
0C00
0C00
0C00
0C00
ENDCHAR
STARTCHAR eight
ENCODING 56
SWIDTH 500 0
DWIDTH 16 0
BBX 12 18 2 0
BITMAP
3FC0
3FC0
C030
C030
C030
C030
3FC0
3FC0
C030
C030
C030
C030
C030
C030
C030
C030
3FC0
3FC0
ENDCHAR
STARTCHAR nine
ENCODING 57
SWIDTH 500 0
DWIDTH 16 0
BBX 12 18 2 0
BITMAP
3FC0
3FC0
C030
C030
C030
C030
C030
C030
3FF0
3FF0
0030
0030
0030
0030
C030
C030
3FC0
3FC0
ENDCHAR
STARTCHAR colon
ENCODING 58
SWIDTH 500 0
DWIDTH 16 0
BBX 4 10 6 2
BITMAP
F0
F0
F0
F0
00
00
F0
F0
F0
F0
ENDCHAR
STARTCHAR semicolon
ENCODING 59
SWIDTH 500 0
DWIDTH 16 0
BBX 4 13 6 -1
BITMAP
F0
F0
F0
F0
00
00
F0
F0
F0
F0
30
F0
C0
ENDCHAR
STARTCHAR less
ENCODING 60
SWIDTH 500 0
DWIDTH 16 0
BBX 16 14 0 0
BITMAP
000F
000F
00F0
00F0
0F00
0F00
F000
F000
0F00
0F00
00F0
00F0
000F
000F
ENDCHAR
STARTCHAR equal
ENCODING 61
SWIDTH 500 0
DWIDTH 16 0
BBX 10 6 2 4
BITMAP
FFC0
FFC0
0000
0000
FFC0
FFC0
ENDCHAR
STARTCHAR greater
ENCODING 62
SWIDTH 500 0
DWIDTH 16 0
BBX 16 14 0 0
BITMAP
F000
F000
0F00
0F00
00F0
00F0
000F
000F
00F0
00F0
0F00
0F00
F000
F000
ENDCHAR
STARTCHAR question
ENCODING 63
SWIDTH 500 0
DWIDTH 16 0
BBX 10 18 2 0
BITMAP
3F00
3F00
C0C0
C0C0
C0C0
C0C0
00C0
00C0
0300
0300
0C00
0C00
0C00
0C00
0000
0000
0C00
0C00
ENDCHAR
STARTCHAR at
ENCODING 64
SWIDTH 500 0
DWIDTH 16 0
BBX 12 20 2 0
BITMAP
3FC0
3FC0
C030
C030
C030
C030
C030
C030
C3F0
C3F0
C330
C330
C3F0
C3F0
C3F0
C3F0
C000
C000
3FF0
3FF0
ENDCHAR
STARTCHAR A
ENCODING 65
SWIDTH 500 0
DWIDTH 16 0
BBX 12 18 2 0
BITMAP
0F00
0F00
30C0
30C0
30C0
30C0
C030
C030
C030
C030
FFF0
FFF0
C030
C030
C030
C030
C030
C030
ENDCHAR
STARTCHAR B
ENCODING 66
SWIDTH 500 0
DWIDTH 16 0
BBX 12 18 2 0
BITMAP
FFC0
FFC0
C030
C030
C030
C030
C030
C030
FFC0
FFC0
C030
C030
C030
C030
C030
C030
FFC0
FFC0
ENDCHAR
STARTCHAR C
ENCODING 67
SWIDTH 500 0
DWIDTH 16 0
BBX 12 18 2 0
BITMAP
3FC0
3FC0
C030
C030
C000
C000
C000
C000
C000
C000
C000
C000
C000
C000
C030
C030
3FC0
3FC0
ENDCHAR
STARTCHAR D
ENCODING 68
SWIDTH 500 0
DWIDTH 16 0
BBX 12 18 2 0
BITMAP
FF00
FF00
C0C0
C0C0
C030
C030
C030
C030
C030
C030
C030
C030
C030
C030
C0C0
C0C0
FF00
FF00
ENDCHAR
STARTCHAR E
ENCODING 69
SWIDTH 500 0
DWIDTH 16 0
BBX 12 18 2 0
BITMAP
FFF0
FFF0
C000
C000
C000
C000
C000
C000
FFC0
FFC0
C000
C000
C000
C000
C000
C000
FFF0
FFF0
ENDCHAR
STARTCHAR F
ENCODING 70
SWIDTH 500 0
DWIDTH 16 0
BBX 12 18 2 0
BITMAP
FFF0
FFF0
C000
C000
C000
C000
C000
C000
FFC0
FFC0
C000
C000
C000
C000
C000
C000
C000
C000
ENDCHAR
STARTCHAR G
ENCODING 71
SWIDTH 500 0
DWIDTH 16 0
BBX 12 18 2 0
BITMAP
3FC0
3FC0
C030
C030
C000
C000
C000
C000
C3F0
C3F0
C030
C030
C030
C030
C030
C030
3FC0
3FC0
ENDCHAR
STARTCHAR H
ENCODING 72
SWIDTH 500 0
DWIDTH 16 0
BBX 12 18 2 0
BITMAP
C030
C030
C030
C030
C030
C030
C030
C030
FFF0
FFF0
C030
C030
C030
C030
C030
C030
C030
C030
ENDCHAR
STARTCHAR I
ENCODING 73
SWIDTH 500 0
DWIDTH 16 0
BBX 6 18 4 0
BITMAP
FC
FC
30
30
30
30
30
30
30
30
30
30
30
30
30
30
FC
FC
ENDCHAR
STARTCHAR J
ENCODING 74
SWIDTH 500 0
DWIDTH 16 0
BBX 10 18 2 0
BITMAP
00C0
00C0
00C0
00C0
00C0
00C0
00C0
00C0
00C0
00C0
00C0
00C0
C0C0
C0C0
C0C0
C0C0
3F00
3F00
ENDCHAR
STARTCHAR K
ENCODING 75
SWIDTH 500 0
DWIDTH 16 0
BBX 12 18 2 0
BITMAP
C030
C030
C0C0
C0C0
C300
C300
CC00
CC00
F000
F000
CC00
CC00
C300
C300
C0C0
C0C0
C030
C030
ENDCHAR
STARTCHAR L
ENCODING 76
SWIDTH 500 0
DWIDTH 16 0
BBX 10 18 2 0
BITMAP
C000
C000
C000
C000
C000
C000
C000
C000
C000
C000
C000
C000
C000
C000
C000
C000
FFC0
FFC0
ENDCHAR
STARTCHAR M
ENCODING 77
SWIDTH 500 0
DWIDTH 16 0
BBX 14 18 0 0
BITMAP
C00C
C00C
F03C
F03C
CCCC
CCCC
C30C
C30C
C00C
C00C
C00C
C00C
C00C
C00C
C00C
C00C
C00C
C00C
ENDCHAR
STARTCHAR N
ENCODING 78
SWIDTH 500 0
DWIDTH 16 0
BBX 12 18 2 0
BITMAP
C030
C030
F030
F030
CC30
CC30
CC30
CC30
C330
C330
C330
C330
C0F0
C0F0
C030
C030
C030
C030
ENDCHAR
STARTCHAR O
ENCODING 79
SWIDTH 500 0
DWIDTH 16 0
BBX 12 18 2 0
BITMAP
0F00
0F00
30C0
30C0
C030
C030
C030
C030
C030
C030
C030
C030
C030
C030
30C0
30C0
0F00
0F00
ENDCHAR
STARTCHAR P
ENCODING 80
SWIDTH 500 0
DWIDTH 16 0
BBX 12 18 2 0
BITMAP
FF00
FF00
C0C0
C0C0
C030
C030
C030
C030
C0C0
C0C0
FF00
FF00
C000
C000
C000
C000
C000
C000
ENDCHAR
STARTCHAR Q
ENCODING 81
SWIDTH 500 0
DWIDTH 16 0
BBX 14 18 0 0
BITMAP
0F00
0F00
30C0
30C0
C030
C030
C030
C030
C030
C030
C030
C030
C330
C330
30C0
30C0
0F3C
0F3C
ENDCHAR
STARTCHAR R
ENCODING 82
SWIDTH 500 0
DWIDTH 16 0
BBX 12 18 2 0
BITMAP
FFC0
FFC0
C030
C030
C030
C030
C0C0
C0C0
FF00
FF00
C0C0
C0C0
C030
C030
C030
C030
C030
C030
ENDCHAR
STARTCHAR S
ENCODING 83
SWIDTH 500 0
DWIDTH 16 0
BBX 12 18 2 0
BITMAP
3FC0
3FC0
C030
C030
C000
C000
3000
3000
0F00
0F00
00C0
00C0
0030
0030
C030
C030
3FC0
3FC0
ENDCHAR
STARTCHAR T
ENCODING 84
SWIDTH 500 0
DWIDTH 16 0
BBX 14 18 0 0
BITMAP
FFFC
FFFC
0300
0300
0300
0300
0300
0300
0300
0300
0300
0300
0300
0300
0300
0300
0300
0300
ENDCHAR
STARTCHAR U
ENCODING 85
SWIDTH 500 0
DWIDTH 16 0
BBX 12 18 2 0
BITMAP
C030
C030
C030
C030
C030
C030
C030
C030
C030
C030
C030
C030
C030
C030
C030
C030
3FC0
3FC0
ENDCHAR
STARTCHAR V
ENCODING 86
SWIDTH 500 0
DWIDTH 16 0
BBX 14 18 0 0
BITMAP
C00C
C00C
C00C
C00C
C00C
C00C
3030
3030
3030
3030
3030
3030
0CC0
0CC0
0CC0
0CC0
0300
0300
ENDCHAR
STARTCHAR W
ENCODING 87
SWIDTH 500 0
DWIDTH 16 0
BBX 14 18 0 0
BITMAP
C00C
C00C
C00C
C00C
C00C
C00C
C30C
C30C
C30C
C30C
CCCC
CCCC
CCCC
CCCC
3030
3030
3030
3030
ENDCHAR
STARTCHAR X
ENCODING 88
SWIDTH 500 0
DWIDTH 16 0
BBX 14 18 0 0
BITMAP
C00C
C00C
3030
3030
3030
3030
0CC0
0CC0
0300
0300
0CC0
0CC0
3030
3030
3030
3030
C00C
C00C
ENDCHAR
STARTCHAR Y
ENCODING 89
SWIDTH 500 0
DWIDTH 16 0
BBX 14 18 0 0
BITMAP
C00C
C00C
C00C
C00C
3030
3030
3030
3030
0CC0
0CC0
0300
0300
0300
0300
0300
0300
0300
0300
ENDCHAR
STARTCHAR Z
ENCODING 90
SWIDTH 500 0
DWIDTH 16 0
BBX 14 18 0 0
BITMAP
FFFC
FFFC
000C
000C
0030
0030
00C0
00C0
0300
0300
0C00
0C00
3000
3000
C000
C000
FFFC
FFFC
ENDCHAR
STARTCHAR bracketleft
ENCODING 91
SWIDTH 500 0
DWIDTH 16 0
BBX 4 23 6 -3
BITMAP
F0
F0
C0
C0
C0
C0
C0
C0
C0
C0
C0
C0
C0
C0
C0
C0
C0
C0
C0
C0
C0
F0
F0
ENDCHAR
STARTCHAR backslash
ENCODING 92
SWIDTH 500 0
DWIDTH 16 0
BBX 8 16 4 0
BITMAP
C0
C0
C0
C0
30
30
30
30
0C
0C
0C
0C
03
03
03
03
ENDCHAR
STARTCHAR bracketright
ENCODING 93
SWIDTH 500 0
DWIDTH 16 0
BBX 4 23 6 -3
BITMAP
F0
F0
30
30
30
30
30
30
30
30
30
30
30
30
30
30
30
30
30
30
30
F0
F0
ENDCHAR
STARTCHAR asciicircum
ENCODING 94
SWIDTH 500 0
DWIDTH 16 0
BBX 12 6 2 18
BITMAP
0F00
0F00
30C0
30C0
C030
C030
ENDCHAR
STARTCHAR underscore
ENCODING 95
SWIDTH 500 0
DWIDTH 16 0
BBX 14 2 0 -1
BITMAP
FFFC
FFFC
ENDCHAR
STARTCHAR grave
ENCODING 96
SWIDTH 500 0
DWIDTH 16 0
BBX 6 4 4 18
BITMAP
F0
F0
0C
0C
ENDCHAR
STARTCHAR a
ENCODING 97
SWIDTH 500 0
DWIDTH 16 0
BBX 12 12 2 0
BITMAP
3F00
3F00
C0C0
C0C0
3FC0
3FC0
C0C0
C0C0
C0C0
C0C0
3F30
3F30
ENDCHAR
STARTCHAR b
ENCODING 98
SWIDTH 500 0
DWIDTH 16 0
BBX 10 18 2 0
BITMAP
C000
C000
C000
C000
C000
C000
CF00
CF00
F0C0
F0C0
C0C0
C0C0
C0C0
C0C0
F0C0
F0C0
CF00
CF00
ENDCHAR
STARTCHAR c
ENCODING 99
SWIDTH 500 0
DWIDTH 16 0
BBX 10 12 2 0
BITMAP
3F00
3F00
C0C0
C0C0
C000
C000
C000
C000
C0C0
C0C0
3F00
3F00
ENDCHAR
STARTCHAR d
ENCODING 100
SWIDTH 500 0
DWIDTH 16 0
BBX 10 18 2 0
BITMAP
00C0
00C0
00C0
00C0
00C0
00C0
3CC0
3CC0
C3C0
C3C0
C0C0
C0C0
C0C0
C0C0
C3C0
C3C0
3CC0
3CC0
ENDCHAR
STARTCHAR e
ENCODING 101
SWIDTH 500 0
DWIDTH 16 0
BBX 10 12 2 0
BITMAP
3F00
3F00
C0C0
C0C0
FFC0
FFC0
C000
C000
C0C0
C0C0
3F00
3F00
ENDCHAR
STARTCHAR f
ENCODING 102
SWIDTH 500 0
DWIDTH 16 0
BBX 6 18 4 0
BITMAP
0C
0C
30
30
FC
FC
30
30
30
30
30
30
30
30
30
30
30
30
ENDCHAR
STARTCHAR g
ENCODING 103
SWIDTH 500 0
DWIDTH 16 0
BBX 10 15 2 -3
BITMAP
3FC0
3FC0
C0C0
C0C0
C0C0
C0C0
C0C0
C0C0
3FC0
3FC0
00C0
C0C0
C0C0
3F00
3F00
ENDCHAR
STARTCHAR h
ENCODING 104
SWIDTH 500 0
DWIDTH 16 0
BBX 10 18 2 0
BITMAP
C000
C000
C000
C000
C000
C000
FF00
FF00
C0C0
C0C0
C0C0
C0C0
C0C0
C0C0
C0C0
C0C0
C0C0
C0C0
ENDCHAR
STARTCHAR i
ENCODING 105
SWIDTH 500 0
DWIDTH 16 0
BBX 6 16 4 0
BITMAP
0C
0C
00
00
FC
FC
0C
0C
0C
0C
0C
0C
0C
0C
0C
0C
ENDCHAR
STARTCHAR j
ENCODING 106
SWIDTH 500 0
DWIDTH 16 0
BBX 6 19 4 -3
BITMAP
0C
0C
00
00
0C
0C
0C
0C
0C
0C
0C
0C
0C
0C
0C
3C
30
C0
C0
ENDCHAR
STARTCHAR k
ENCODING 107
SWIDTH 500 0
DWIDTH 16 0
BBX 10 16 2 0
BITMAP
C000
C000
C000
C000
C0C0
C0C0
C300
C300
CC00
CC00
FC00
FC00
C300
C300
C0C0
C0C0
ENDCHAR
STARTCHAR l
ENCODING 108
SWIDTH 500 0
DWIDTH 16 0
BBX 8 18 4 0
BITMAP
FC
FC
0C
0C
0C
0C
0C
0C
0C
0C
0C
0C
0C
0C
0C
0C
0F
0F
ENDCHAR
STARTCHAR m
ENCODING 109
SWIDTH 500 0
DWIDTH 16 0
BBX 14 12 0 0
BITMAP
FCF0
FCF0
C30C
C30C
C30C
C30C
C30C
C30C
C30C
C30C
C30C
C30C
ENDCHAR
STARTCHAR n
ENCODING 110
SWIDTH 500 0
DWIDTH 16 0
BBX 10 12 2 0
BITMAP
FF00
FF00
C0C0
C0C0
C0C0
C0C0
C0C0
C0C0
C0C0
C0C0
C0C0
C0C0
ENDCHAR
STARTCHAR o
ENCODING 111
SWIDTH 500 0
DWIDTH 16 0
BBX 10 12 2 0
BITMAP
3F00
3F00
C0C0
C0C0
C0C0
C0C0
C0C0
C0C0
C0C0
C0C0
3F00
3F00
ENDCHAR
STARTCHAR p
ENCODING 112
SWIDTH 500 0
DWIDTH 16 0
BBX 10 15 2 -3
BITMAP
CF00
CF00
F0C0
F0C0
C0C0
C0C0
C0C0
C0C0
F0C0
F0C0
CF00
CF00
C000
C000
C000
ENDCHAR
STARTCHAR q
ENCODING 113
SWIDTH 500 0
DWIDTH 16 0
BBX 10 15 2 -3
BITMAP
3CC0
3CC0
C3C0
C3C0
C0C0
C0C0
C0C0
C0C0
C3C0
C3C0
3CC0
3CC0
00C0
00C0
00C0
ENDCHAR
STARTCHAR r
ENCODING 114
SWIDTH 500 0
DWIDTH 16 0
BBX 8 12 4 0
BITMAP
CF
CF
F0
F0
C0
C0
C0
C0
C0
C0
C0
C0
ENDCHAR
STARTCHAR s
ENCODING 115
SWIDTH 500 0
DWIDTH 16 0
BBX 10 12 2 0
BITMAP
3F00
3F00
C0C0
C0C0
3C00
3C00
0300
0300
C0C0
C0C0
3F00
3F00
ENDCHAR
STARTCHAR t
ENCODING 116
SWIDTH 500 0
DWIDTH 16 0
BBX 8 14 4 0
BITMAP
30
30
FC
FC
30
30
30
30
30
30
30
30
0F
0F
ENDCHAR
STARTCHAR u
ENCODING 117
SWIDTH 500 0
DWIDTH 16 0
BBX 10 12 2 0
BITMAP
C0C0
C0C0
C0C0
C0C0
C0C0
C0C0
C0C0
C0C0
C0C0
C0C0
3FC0
3FC0
ENDCHAR
STARTCHAR v
ENCODING 118
SWIDTH 500 0
DWIDTH 16 0
BBX 10 12 2 0
BITMAP
C0C0
C0C0
C0C0
C0C0
C0C0
C0C0
3300
3300
3300
3300
0C00
0C00
ENDCHAR
STARTCHAR w
ENCODING 119
SWIDTH 500 0
DWIDTH 16 0
BBX 10 12 2 0
BITMAP
C0C0
C0C0
C0C0
C0C0
CCC0
CCC0
CCC0
CCC0
CCC0
CCC0
3300
3300
ENDCHAR
STARTCHAR x
ENCODING 120
SWIDTH 500 0
DWIDTH 16 0
BBX 10 12 2 0
BITMAP
C0C0
C0C0
3300
3300
0C00
0C00
0C00
0C00
3300
3300
C0C0
C0C0
ENDCHAR
STARTCHAR y
ENCODING 121
SWIDTH 500 0
DWIDTH 16 0
BBX 12 15 2 -3
BITMAP
C030
C030
30C0
30C0
30C0
30C0
30C0
30C0
0F00
0F00
0300
0F00
0C00
F000
F000
ENDCHAR
STARTCHAR z
ENCODING 122
SWIDTH 500 0
DWIDTH 16 0
BBX 10 12 2 0
BITMAP
FFC0
FFC0
0300
0300
0C00
0C00
3000
3000
C000
C000
FFC0
FFC0
ENDCHAR
STARTCHAR braceleft
ENCODING 123
SWIDTH 500 0
DWIDTH 16 0
BBX 12 25 2 -3
BITMAP
00F0
00F0
0300
0300
0300
0300
0300
0300
0300
0300
0300
0300
FC00
FC00
0300
0300
0300
0300
0300
0300
0300
0300
0300
00F0
00F0
ENDCHAR
STARTCHAR bar
ENCODING 124
SWIDTH 500 0
DWIDTH 16 0
BBX 2 25 6 -3
BITMAP
C0
C0
C0
C0
C0
C0
C0
C0
C0
C0
C0
C0
C0
C0
C0
C0
C0
C0
C0
C0
C0
C0
C0
C0
C0
ENDCHAR
STARTCHAR braceright
ENCODING 125
SWIDTH 500 0
DWIDTH 16 0
BBX 14 25 0 -3
BITMAP
FC00
FC00
0300
0300
0300
0300
0300
0300
0300
0300
0300
0300
00FC
00FC
0300
0300
0300
0300
0300
0300
0300
0300
0300
FC00
FC00
ENDCHAR
STARTCHAR asciitilde
ENCODING 126
SWIDTH 500 0
DWIDTH 16 0
BBX 14 6 0 4
BITMAP
3C00
3C00
C30C
C30C
00F0
00F0
ENDCHAR
STARTCHAR uni00A0
ENCODING 160
SWIDTH 500 0
DWIDTH 16 0
BBX 1 1 0 0
BITMAP
00
ENDCHAR
STARTCHAR sterling
ENCODING 163
SWIDTH 500 0
DWIDTH 16 0
BBX 12 20 2 0
BITMAP
03C0
03C0
0C00
0C00
3C00
3C00
3C00
3C00
FFC0
FFC0
3C00
3C00
3C00
3C00
3C00
3C00
3C00
3C00
C3F0
C3F0
ENDCHAR
STARTCHAR currency
ENCODING 164
SWIDTH 500 0
DWIDTH 16 0
BBX 18 18 0 0
BITMAP
0FFC00
0FFC00
300300
300300
C3F0C0
C3F0C0
CC00C0
CC00C0
CCFCC0
CCFCC0
CC0CC0
CC0CC0
C3F0C0
C3F0C0
300300
300300
0FFC00
0FFC00
ENDCHAR
STARTCHAR yen
ENCODING 165
SWIDTH 500 0
DWIDTH 16 0
BBX 14 22 0 0
BITMAP
3030
3030
3030
3030
3030
3030
3030
3030
0CC0
0CC0
0300
0300
FFFC
FFFC
0300
0300
FFFC
FFFC
0300
0300
0300
0300
ENDCHAR
STARTCHAR brokenbar
ENCODING 166
SWIDTH 500 0
DWIDTH 16 0
BBX 2 25 6 -3
BITMAP
C0
C0
C0
C0
C0
C0
C0
C0
C0
C0
C0
C0
00
00
00
00
C0
C0
C0
C0
C0
C0
C0
C0
C0
ENDCHAR
STARTCHAR guillemotleft
ENCODING 171
SWIDTH 500 0
DWIDTH 16 0
BBX 12 10 0 2
BITMAP
0C30
0C30
30C0
30C0
C300
C300
30C0
30C0
0C30
0C30
ENDCHAR
STARTCHAR degree
ENCODING 176
SWIDTH 500 0
DWIDTH 16 0
BBX 8 10 0 12
BITMAP
3C
3C
FF
FF
C3
C3
FF
FF
3C
3C
ENDCHAR
STARTCHAR periodcentered
ENCODING 183
SWIDTH 500 0
DWIDTH 16 0
BBX 2 2 0 6
BITMAP
C0
C0
ENDCHAR
STARTCHAR guillemotright
ENCODING 187
SWIDTH 500 0
DWIDTH 16 0
BBX 12 10 0 2
BITMAP
C300
C300
30C0
30C0
0C30
0C30
30C0
30C0
C300
C300
ENDCHAR
STARTCHAR Oacute
ENCODING 211
SWIDTH 500 0
DWIDTH 16 0
BBX 12 24 0 0
BITMAP
0300
0300
0C00
0C00
0000
0000
0F00
0F00
30C0
30C0
C030
C030
C030
C030
C030
C030
C030
C030
C030
C030
30C0
30C0
0F00
0F00
ENDCHAR
STARTCHAR multiply
ENCODING 215
SWIDTH 500 0
DWIDTH 16 0
BBX 8 8 2 2
BITMAP
C3
C3
3C
3C
3C
3C
C3
C3
ENDCHAR
STARTCHAR oacute
ENCODING 243
SWIDTH 500 0
DWIDTH 16 0
BBX 10 18 0 0
BITMAP
0300
0300
0C00
0C00
0000
0000
3F00
3F00
C0C0
C0C0
C0C0
C0C0
C0C0
C0C0
C0C0
C0C0
3F00
3F00
ENDCHAR
STARTCHAR divide
ENCODING 247
SWIDTH 500 0
DWIDTH 16 0
BBX 8 10 0 4
BITMAP
3C
3C
00
00
FF
FF
00
00
3C
3C
ENDCHAR
STARTCHAR Aogonek
ENCODING 260
SWIDTH 500 0
DWIDTH 16 0
BBX 12 21 0 -3
BITMAP
0F00
0F00
30C0
30C0
30C0
30C0
C030
C030
C030
C030
FFF0
FFF0
C030
C030
C030
C030
C030
C0F0
00C0
0030
0030
ENDCHAR
STARTCHAR aogonek
ENCODING 261
SWIDTH 500 0
DWIDTH 16 0
BBX 12 15 0 -3
BITMAP
3F00
3F00
C0C0
C0C0
3FC0
3FC0
C0C0
C0C0
C3C0
C3C0
3C30
3CF0
00C0
0030
0030
ENDCHAR
STARTCHAR Cacute
ENCODING 262
SWIDTH 500 0
DWIDTH 16 0
BBX 12 24 0 0
BITMAP
0300
0300
0C00
0C00
0000
0000
3FC0
3FC0
C030
C030
C000
C000
C000
C000
C000
C000
C000
C000
C000
C000
C030
C030
3FC0
3FC0
ENDCHAR
STARTCHAR cacute
ENCODING 263
SWIDTH 500 0
DWIDTH 16 0
BBX 10 18 0 0
BITMAP
0300
0300
0C00
0C00
0000
0000
3F00
3F00
C0C0
C0C0
C000
C000
C000
C000
C0C0
C0C0
3F00
3F00
ENDCHAR
STARTCHAR Eogonek
ENCODING 280
SWIDTH 500 0
DWIDTH 16 0
BBX 12 21 0 -3
BITMAP
FFF0
FFF0
C000
C000
C000
C000
C000
C000
FFC0
FFC0
C000
C000
C000
C000
C000
C000
FFF0
FFF0
00C0
0030
0030
ENDCHAR
STARTCHAR eogonek
ENCODING 281
SWIDTH 500 0
DWIDTH 16 0
BBX 10 15 0 -3
BITMAP
3F00
3F00
C0C0
C0C0
FFC0
FFC0
C000
C000
C0C0
C0C0
3F00
3F00
0300
00C0
00C0
ENDCHAR
STARTCHAR Lslash
ENCODING 321
SWIDTH 500 0
DWIDTH 16 0
BBX 12 18 0 0
BITMAP
3000
3000
3000
3000
3300
3300
3C00
3C00
3000
3000
F000
F000
3000
3000
3000
3000
3FF0
3FF0
ENDCHAR
STARTCHAR lslash
ENCODING 322
SWIDTH 500 0
DWIDTH 16 0
BBX 8 18 0 0
BITMAP
30
30
30
30
33
33
3C
3C
30
30
F0
F0
30
30
30
30
30
30
ENDCHAR
STARTCHAR Nacute
ENCODING 323
SWIDTH 500 0
DWIDTH 16 0
BBX 12 24 0 0
BITMAP
0300
0300
0C00
0C00
0000
0000
C030
C030
F030
F030
CC30
CC30
CC30
CC30
C330
C330
C330
C330
C0F0
C0F0
C030
C030
C030
C030
ENDCHAR
STARTCHAR nacute
ENCODING 324
SWIDTH 500 0
DWIDTH 16 0
BBX 10 18 0 0
BITMAP
0300
0300
0C00
0C00
0000
0000
FF00
FF00
C0C0
C0C0
C0C0
C0C0
C0C0
C0C0
C0C0
C0C0
C0C0
C0C0
ENDCHAR
STARTCHAR Sacute
ENCODING 346
SWIDTH 500 0
DWIDTH 16 0
BBX 12 24 0 0
BITMAP
03C0
03C0
0F00
0F00
0000
0000
3FC0
3FC0
C030
C030
C000
C000
3000
3000
0F00
0F00
00C0
00C0
0030
0030
C030
C030
3FC0
3FC0
ENDCHAR
STARTCHAR sacute
ENCODING 347
SWIDTH 500 0
DWIDTH 16 0
BBX 10 18 0 0
BITMAP
0300
0300
0C00
0C00
0000
0000
3F00
3F00
C0C0
C0C0
3C00
3C00
0300
0300
C0C0
C0C0
3F00
3F00
ENDCHAR
STARTCHAR Zacute
ENCODING 377
SWIDTH 500 0
DWIDTH 16 0
BBX 14 24 0 0
BITMAP
00C0
00C0
0300
0300
0000
0000
FFFC
FFFC
000C
000C
0030
0030
00C0
00C0
0300
0300
0C00
0C00
3000
3000
C000
C000
FFFC
FFFC
ENDCHAR
STARTCHAR zacute
ENCODING 378
SWIDTH 500 0
DWIDTH 16 0
BBX 10 18 0 0
BITMAP
0300
0300
0C00
0C00
0000
0000
FFC0
FFC0
0300
0300
0C00
0C00
3000
3000
C000
C000
FFC0
FFC0
ENDCHAR
STARTCHAR Zdotaccent
ENCODING 379
SWIDTH 500 0
DWIDTH 16 0
BBX 14 24 0 0
BITMAP
03C0
03C0
03C0
03C0
0000
0000
FFFC
FFFC
000C
000C
0030
0030
00C0
00C0
0300
0300
0C00
0C00
3000
3000
C000
C000
FFFC
FFFC
ENDCHAR
STARTCHAR zdotaccent
ENCODING 380
SWIDTH 500 0
DWIDTH 16 0
BBX 10 16 0 0
BITMAP
0C00
0C00
0000
0000
FFC0
FFC0
0300
0300
0C00
0C00
3000
3000
C000
C000
FFC0
FFC0
ENDCHAR
STARTCHAR uni2000
ENCODING 8192
SWIDTH 500 0
DWIDTH 16 0
BBX 1 1 0 0
BITMAP
00
ENDCHAR
STARTCHAR uni2001
ENCODING 8193
SWIDTH 500 0
DWIDTH 16 0
BBX 1 1 0 0
BITMAP
00
ENDCHAR
STARTCHAR uni2002
ENCODING 8194
SWIDTH 500 0
DWIDTH 16 0
BBX 1 1 0 0
BITMAP
00
ENDCHAR
STARTCHAR uni2003
ENCODING 8195
SWIDTH 500 0
DWIDTH 16 0
BBX 1 1 0 0
BITMAP
00
ENDCHAR
STARTCHAR uni2004
ENCODING 8196
SWIDTH 500 0
DWIDTH 16 0
BBX 1 1 0 0
BITMAP
00
ENDCHAR
STARTCHAR uni2005
ENCODING 8197
SWIDTH 500 0
DWIDTH 16 0
BBX 1 1 0 0
BITMAP
00
ENDCHAR
STARTCHAR uni2006
ENCODING 8198
SWIDTH 500 0
DWIDTH 16 0
BBX 1 1 0 0
BITMAP
00
ENDCHAR
STARTCHAR uni2007
ENCODING 8199
SWIDTH 500 0
DWIDTH 16 0
BBX 1 1 0 0
BITMAP
00
ENDCHAR
STARTCHAR uni2008
ENCODING 8200
SWIDTH 500 0
DWIDTH 16 0
BBX 1 1 0 0
BITMAP
00
ENDCHAR
STARTCHAR uni2009
ENCODING 8201
SWIDTH 500 0
DWIDTH 16 0
BBX 1 1 0 0
BITMAP
00
ENDCHAR
STARTCHAR uni200A
ENCODING 8202
SWIDTH 500 0
DWIDTH 16 0
BBX 1 1 0 0
BITMAP
00
ENDCHAR
STARTCHAR emdash
ENCODING 8212
SWIDTH 500 0
DWIDTH 16 0
BBX 16 2 0 6
BITMAP
FFFF
FFFF
ENDCHAR
STARTCHAR quoteleft
ENCODING 8216
SWIDTH 500 0
DWIDTH 16 0
BBX 4 8 0 12
BITMAP
30
30
C0
C0
F0
F0
F0
F0
ENDCHAR
STARTCHAR quoteright
ENCODING 8217
SWIDTH 500 0
DWIDTH 16 0
BBX 4 8 0 12
BITMAP
F0
F0
F0
F0
30
30
C0
C0
ENDCHAR
STARTCHAR quotedblleft
ENCODING 8220
SWIDTH 500 0
DWIDTH 16 0
BBX 4 8 0 12
BITMAP
30
30
C0
C0
F0
F0
F0
F0
ENDCHAR
STARTCHAR quotedblright
ENCODING 8221
SWIDTH 500 0
DWIDTH 16 0
BBX 10 8 0 12
BITMAP
F3C0
F3C0
F3C0
F3C0
30C0
30C0
C300
C300
ENDCHAR
STARTCHAR quotedblbase
ENCODING 8222
SWIDTH 500 0
DWIDTH 16 0
BBX 6 3 0 -1
BITMAP
FC
FC
C0
ENDCHAR
STARTCHAR bullet
ENCODING 8226
SWIDTH 500 0
DWIDTH 16 0
BBX 4 2 0 6
BITMAP
F0
F0
ENDCHAR
STARTCHAR ellipsis
ENCODING 8230
SWIDTH 500 0
DWIDTH 16 0
BBX 8 2 0 0
BITMAP
FF
FF
ENDCHAR
STARTCHAR guilsinglleft
ENCODING 8249
SWIDTH 500 0
DWIDTH 16 0
BBX 6 10 0 2
BITMAP
0C
0C
30
30
C0
C0
30
30
0C
0C
ENDCHAR
STARTCHAR guilsinglright
ENCODING 8250
SWIDTH 500 0
DWIDTH 16 0
BBX 6 10 0 2
BITMAP
C0
C0
30
30
0C
0C
30
30
C0
C0
ENDCHAR
STARTCHAR Euro
ENCODING 8364
SWIDTH 500 0
DWIDTH 16 0
BBX 12 18 2 0
BITMAP
03C0
03C0
03C0
03C0
3C30
3C30
FF00
FF00
3C00
3C00
FF00
FF00
3C00
3C00
0C30
0C30
03C0
03C0
ENDCHAR
STARTCHAR uni3000
ENCODING 12288
SWIDTH 500 0
DWIDTH 16 0
BBX 1 1 0 0
BITMAP
00
ENDCHAR
STARTCHAR .notdef
ENCODING -1
SWIDTH 365 0
DWIDTH 12 0
BBX 8 22 2 0
BITMAP
FF
81
81
81
81
81
81
81
81
81
81
81
81
81
81
81
81
81
81
81
FF
FF
ENDCHAR
STARTCHAR .null
ENCODING -1
SWIDTH 0 0
DWIDTH 0 0
BBX 1 1 0 0
BITMAP
00
ENDCHAR
STARTCHAR nonmarkingreturn
ENCODING -1
SWIDTH 333 0
DWIDTH 11 0
BBX 1 1 0 0
BITMAP
00
ENDCHAR
ENDFONT
