STARTFONT 2.1
FONT -FontForge-FF8-Medium-R-Normal--20-190-75-75-P-98-ISO10646-1
SIZE 19 75 75
FONTBOUNDINGBOX 11 18 0 -3
COMMENT "Generated by fontforge, http://fontforge.sourceforge.net"
COMMENT "Tristanto"
STARTPROPERTIES 40
FOUNDRY "FontForge"
FAMILY_NAME "FF8"
WEIGHT_NAME "Medium"
SLANT "R"
SETWIDTH_NAME "Normal"
ADD_STYLE_NAME ""
PIXEL_SIZE 20
POINT_SIZE 190
RESOLUTION_X 75
RESOLUTION_Y 75
SPACING "P"
AVERAGE_WIDTH 98
CHARSET_REGISTRY "ISO10646"
CHARSET_ENCODING "1"
FONTNAME_REGISTRY ""
CHARSET_COLLECTIONS "ISO10646-1"
FONT_NAME "FF8"
FACE_NAME "FF8"
COPYRIGHT "Tristanto"
FONT_VERSION "001.000"
FONT_ASCENT 15
FONT_DESCENT 5
UNDERLINE_POSITION -3
UNDERLINE_THICKNESS 1
X_HEIGHT 7
CAP_HEIGHT 10
RAW_ASCENT 750
RAW_DESCENT 250
NORM_SPACE 10
RELATIVE_WEIGHT 50
RELATIVE_SETWIDTH 50
SUPERSCRIPT_X 0
SUPERSCRIPT_Y 9
SUPERSCRIPT_SIZE 13
SUBSCRIPT_X 0
SUBSCRIPT_Y 2
SUBSCRIPT_SIZE 13
FIGURE_WIDTH 10
AVG_LOWERCASE_WIDTH 100
AVG_UPPERCASE_WIDTH 100
ENDPROPERTIES
CHARS 150
STARTCHAR space
ENCODING 32
SWIDTH 500 0
DWIDTH 10 0
BBX 1 1 0 0
BITMAP
00
ENDCHAR
STARTCHAR exclam
ENCODING 33
SWIDTH 500 0
DWIDTH 10 0
BBX 4 11 2 0
BITMAP
20
F0
F0
F0
F0
F0
20
20
20
00
20
ENDCHAR
STARTCHAR quotedbl
ENCODING 34
SWIDTH 500 0
DWIDTH 10 0
BBX 7 6 1 7
BITMAP
EE
EE
EE
66
C8
C8
ENDCHAR
STARTCHAR numbersign
ENCODING 35
SWIDTH 500 0
DWIDTH 10 0
BBX 9 9 0 0
BITMAP
0B00
0B00
0B00
7F80
3400
3400
FF00
FF00
6800
ENDCHAR
STARTCHAR dollar
ENCODING 36
SWIDTH 500 0
DWIDTH 10 0
BBX 7 11 1 -1
BITMAP
10
78
FE
D6
D0
78
16
D6
D6
78
10
ENDCHAR
STARTCHAR percent
ENCODING 37
SWIDTH 500 0
DWIDTH 10 0
BBX 9 11 0 0
BITMAP
6300
B300
B400
F400
6400
0800
3300
3580
7580
6580
6300
ENDCHAR
STARTCHAR ampersand
ENCODING 38
SWIDTH 500 0
DWIDTH 10 0
BBX 9 9 0 0
BITMAP
3800
7C00
6400
6400
7980
8700
8700
8700
7980
ENDCHAR
STARTCHAR quotesingle
ENCODING 39
SWIDTH 500 0
DWIDTH 10 0
BBX 2 6 4 7
BITMAP
C0
C0
C0
40
80
80
ENDCHAR
STARTCHAR parenleft
ENCODING 40
SWIDTH 500 0
DWIDTH 10 0
BBX 4 17 2 -3
BITMAP
10
10
10
20
20
C0
C0
C0
C0
C0
C0
E0
20
20
10
10
10
ENDCHAR
STARTCHAR parenright
ENCODING 41
SWIDTH 500 0
DWIDTH 10 0
BBX 4 17 2 -3
BITMAP
C0
C0
C0
20
20
10
10
10
10
10
10
30
20
20
C0
C0
C0
ENDCHAR
STARTCHAR asterisk
ENCODING 42
SWIDTH 500 0
DWIDTH 10 0
BBX 9 9 0 1
BITMAP
0800
8980
EB80
6B00
3C00
6B00
8980
8980
0800
ENDCHAR
STARTCHAR plus
ENCODING 43
SWIDTH 500 0
DWIDTH 10 0
BBX 7 7 1 1
BITMAP
10
10
10
FE
10
10
10
ENDCHAR
STARTCHAR comma
ENCODING 44
SWIDTH 500 0
DWIDTH 10 0
BBX 2 6 4 -3
BITMAP
C0
C0
C0
40
80
80
ENDCHAR
STARTCHAR hyphen
ENCODING 45
SWIDTH 500 0
DWIDTH 10 0
BBX 7 1 1 4
BITMAP
FE
ENDCHAR
STARTCHAR period
ENCODING 46
SWIDTH 500 0
DWIDTH 10 0
BBX 2 3 4 0
BITMAP
C0
C0
C0
ENDCHAR
STARTCHAR slash
ENCODING 47
SWIDTH 500 0
DWIDTH 10 0
BBX 6 10 2 0
BITMAP
0C
0C
1C
10
10
20
20
E0
C0
C0
ENDCHAR
STARTCHAR zero
ENCODING 48
SWIDTH 500 0
DWIDTH 10 0
BBX 8 11 1 0
BITMAP
7E
C3
C3
DB
DB
DB
DB
C3
C3
C3
7E
ENDCHAR
STARTCHAR one
ENCODING 49
SWIDTH 500 0
DWIDTH 10 0
BBX 4 11 2 0
BITMAP
10
30
D0
D0
10
10
10
10
10
10
10
ENDCHAR
STARTCHAR two
ENCODING 50
SWIDTH 500 0
DWIDTH 10 0
BBX 8 11 1 0
BITMAP
7E
C3
C3
C3
03
06
08
10
70
60
FF
ENDCHAR
STARTCHAR three
ENCODING 51
SWIDTH 500 0
DWIDTH 10 0
BBX 8 11 1 0
BITMAP
7E
C3
03
03
03
1E
03
03
C3
C3
7E
ENDCHAR
STARTCHAR four
ENCODING 52
SWIDTH 500 0
DWIDTH 10 0
BBX 8 11 1 0
BITMAP
0E
16
66
E6
C6
C6
C6
FF
FF
06
06
ENDCHAR
STARTCHAR five
ENCODING 53
SWIDTH 500 0
DWIDTH 10 0
BBX 8 11 1 0
BITMAP
FF
C0
C0
FE
FE
03
03
03
C3
C3
7E
ENDCHAR
STARTCHAR six
ENCODING 54
SWIDTH 500 0
DWIDTH 10 0
BBX 8 11 1 0
BITMAP
7E
C3
C0
FE
FE
C3
C3
C3
C3
C3
7E
ENDCHAR
STARTCHAR seven
ENCODING 55
SWIDTH 500 0
DWIDTH 10 0
BBX 8 11 1 0
BITMAP
FF
03
03
07
06
08
10
10
10
10
10
ENDCHAR
STARTCHAR eight
ENCODING 56
SWIDTH 500 0
DWIDTH 10 0
BBX 8 11 1 0
BITMAP
7E
C3
C3
FF
7E
C3
C3
C3
C3
C3
7E
ENDCHAR
STARTCHAR nine
ENCODING 57
SWIDTH 500 0
DWIDTH 10 0
BBX 8 11 1 0
BITMAP
7E
C3
C3
C3
C3
7F
03
03
C3
C3
7E
ENDCHAR
STARTCHAR colon
ENCODING 58
SWIDTH 500 0
DWIDTH 10 0
BBX 2 7 4 1
BITMAP
C0
C0
C0
00
C0
C0
C0
ENDCHAR
STARTCHAR semicolon
ENCODING 59
SWIDTH 500 0
DWIDTH 10 0
BBX 2 9 4 -1
BITMAP
C0
C0
C0
00
C0
C0
C0
40
80
ENDCHAR
STARTCHAR less
ENCODING 60
SWIDTH 500 0
DWIDTH 10 0
BBX 10 9 0 0
BITMAP
01C0
07C0
0700
3800
E000
3800
3F00
0700
01C0
ENDCHAR
STARTCHAR equal
ENCODING 61
SWIDTH 500 0
DWIDTH 10 0
BBX 7 4 1 2
BITMAP
FE
00
FE
FE
ENDCHAR
STARTCHAR greater
ENCODING 62
SWIDTH 500 0
DWIDTH 10 0
BBX 10 9 0 0
BITMAP
E000
F800
3800
0700
01C0
0700
3F00
3800
E000
ENDCHAR
STARTCHAR question
ENCODING 63
SWIDTH 500 0
DWIDTH 10 0
BBX 7 11 1 0
BITMAP
78
C6
C6
C6
06
08
10
10
10
00
10
ENDCHAR
STARTCHAR at
ENCODING 64
SWIDTH 500 0
DWIDTH 10 0
BBX 8 13 1 0
BITMAP
7E
7E
C3
C3
C3
CF
CF
CB
CF
CF
CF
C0
7F
ENDCHAR
STARTCHAR A
ENCODING 65
SWIDTH 500 0
DWIDTH 10 0
BBX 8 11 1 0
BITMAP
18
66
66
E7
C3
C3
FF
C3
C3
C3
C3
ENDCHAR
STARTCHAR B
ENCODING 66
SWIDTH 500 0
DWIDTH 10 0
BBX 8 11 1 0
BITMAP
FE
C3
C3
C3
C3
FE
C3
C3
C3
C3
FE
ENDCHAR
STARTCHAR C
ENCODING 67
SWIDTH 500 0
DWIDTH 10 0
BBX 8 11 1 0
BITMAP
7E
C3
C0
C0
C0
C0
C0
C0
C3
C3
7E
ENDCHAR
STARTCHAR D
ENCODING 68
SWIDTH 500 0
DWIDTH 10 0
BBX 8 11 1 0
BITMAP
F8
C6
C3
C3
C3
C3
C3
C3
C7
C6
F8
ENDCHAR
STARTCHAR E
ENCODING 69
SWIDTH 500 0
DWIDTH 10 0
BBX 8 11 1 0
BITMAP
FF
C0
C0
C0
C0
FE
C0
C0
C0
C0
FF
ENDCHAR
STARTCHAR F
ENCODING 70
SWIDTH 500 0
DWIDTH 10 0
BBX 8 11 1 0
BITMAP
FF
C0
C0
C0
C0
FE
C0
C0
C0
C0
C0
ENDCHAR
STARTCHAR G
ENCODING 71
SWIDTH 500 0
DWIDTH 10 0
BBX 8 11 1 0
BITMAP
7E
C3
C0
C0
C0
CF
C3
C3
C3
C3
7E
ENDCHAR
STARTCHAR H
ENCODING 72
SWIDTH 500 0
DWIDTH 10 0
BBX 8 11 1 0
BITMAP
C3
C3
C3
C3
C3
FF
C3
C3
C3
C3
C3
ENDCHAR
STARTCHAR I
ENCODING 73
SWIDTH 500 0
DWIDTH 10 0
BBX 4 11 2 0
BITMAP
F0
20
20
20
20
20
20
20
20
20
F0
ENDCHAR
STARTCHAR J
ENCODING 74
SWIDTH 500 0
DWIDTH 10 0
BBX 7 11 1 0
BITMAP
06
06
06
06
06
06
06
C6
C6
C6
78
ENDCHAR
STARTCHAR K
ENCODING 75
SWIDTH 500 0
DWIDTH 10 0
BBX 8 11 1 0
BITMAP
C3
C6
C8
D8
D0
E0
D0
C8
CE
C6
C3
ENDCHAR
STARTCHAR L
ENCODING 76
SWIDTH 500 0
DWIDTH 10 0
BBX 7 11 1 0
BITMAP
C0
C0
C0
C0
C0
C0
C0
C0
C0
C0
FE
ENDCHAR
STARTCHAR M
ENCODING 77
SWIDTH 500 0
DWIDTH 10 0
BBX 9 11 0 0
BITMAP
8180
E380
B580
BD80
8980
8180
8180
8180
8180
8180
8180
ENDCHAR
STARTCHAR N
ENCODING 78
SWIDTH 500 0
DWIDTH 10 0
BBX 8 11 1 0
BITMAP
C3
E3
D3
D3
D3
CB
CB
C7
C7
C3
C3
ENDCHAR
STARTCHAR O
ENCODING 79
SWIDTH 500 0
DWIDTH 10 0
BBX 8 11 1 0
BITMAP
18
66
C3
C3
C3
C3
C3
C3
E7
66
18
ENDCHAR
STARTCHAR P
ENCODING 80
SWIDTH 500 0
DWIDTH 10 0
BBX 8 11 1 0
BITMAP
F8
C6
C3
C3
C3
C6
F8
C0
C0
C0
C0
ENDCHAR
STARTCHAR Q
ENCODING 81
SWIDTH 500 0
DWIDTH 10 0
BBX 9 11 0 0
BITMAP
3800
6400
8300
8300
8300
8300
8300
8B00
EF00
6400
3B80
ENDCHAR
STARTCHAR R
ENCODING 82
SWIDTH 500 0
DWIDTH 10 0
BBX 8 11 1 0
BITMAP
FE
C3
C3
C7
C6
F8
C6
C3
C3
C3
C3
ENDCHAR
STARTCHAR S
ENCODING 83
SWIDTH 500 0
DWIDTH 10 0
BBX 8 11 1 0
BITMAP
7E
C3
C0
E0
60
18
06
03
C3
C3
7E
ENDCHAR
STARTCHAR T
ENCODING 84
SWIDTH 500 0
DWIDTH 10 0
BBX 9 11 0 0
BITMAP
FF80
0800
0800
0800
0800
0800
0800
0800
0800
0800
0800
ENDCHAR
STARTCHAR U
ENCODING 85
SWIDTH 500 0
DWIDTH 10 0
BBX 8 11 1 0
BITMAP
C3
C3
C3
C3
C3
C3
C3
C3
C3
C3
7E
ENDCHAR
STARTCHAR V
ENCODING 86
SWIDTH 500 0
DWIDTH 10 0
BBX 9 11 0 0
BITMAP
8180
8180
8180
E380
6300
6300
6300
3400
3400
3400
0800
ENDCHAR
STARTCHAR W
ENCODING 87
SWIDTH 500 0
DWIDTH 10 0
BBX 9 11 0 0
BITMAP
8180
8180
8180
8980
8980
8980
B580
B580
F780
6300
6300
ENDCHAR
STARTCHAR X
ENCODING 88
SWIDTH 500 0
DWIDTH 10 0
BBX 9 11 0 0
BITMAP
8180
6300
6300
7700
3400
0800
3400
6300
6300
6300
8180
ENDCHAR
STARTCHAR Y
ENCODING 89
SWIDTH 500 0
DWIDTH 10 0
BBX 9 11 0 0
BITMAP
8180
8180
6300
6300
6300
3400
0800
0800
0800
0800
0800
ENDCHAR
STARTCHAR Z
ENCODING 90
SWIDTH 500 0
DWIDTH 10 0
BBX 9 11 0 0
BITMAP
FF80
0180
0300
0700
0400
0800
3000
6000
E000
8000
FF80
ENDCHAR
STARTCHAR bracketleft
ENCODING 91
SWIDTH 500 0
DWIDTH 10 0
BBX 2 16 4 -3
BITMAP
C0
C0
80
80
80
80
80
80
80
80
80
80
80
80
C0
C0
ENDCHAR
STARTCHAR backslash
ENCODING 92
SWIDTH 500 0
DWIDTH 10 0
BBX 6 10 2 0
BITMAP
C0
C0
E0
20
20
10
10
1C
0C
0C
ENDCHAR
STARTCHAR bracketright
ENCODING 93
SWIDTH 500 0
DWIDTH 10 0
BBX 2 16 4 -3
BITMAP
C0
C0
40
40
40
40
40
40
40
40
40
40
40
40
C0
C0
ENDCHAR
STARTCHAR asciicircum
ENCODING 94
SWIDTH 500 0
DWIDTH 10 0
BBX 8 4 1 11
BITMAP
18
66
E7
C3
ENDCHAR
STARTCHAR underscore
ENCODING 95
SWIDTH 500 0
DWIDTH 10 0
BBX 9 1 0 -1
BITMAP
FF80
ENDCHAR
STARTCHAR grave
ENCODING 96
SWIDTH 500 0
DWIDTH 10 0
BBX 4 3 2 11
BITMAP
E0
F0
10
ENDCHAR
STARTCHAR a
ENCODING 97
SWIDTH 500 0
DWIDTH 10 0
BBX 8 8 1 0
BITMAP
78
78
C6
7E
C6
C6
C6
7B
ENDCHAR
STARTCHAR b
ENCODING 98
SWIDTH 500 0
DWIDTH 10 0
BBX 7 11 1 0
BITMAP
C0
C0
C0
D8
D8
E6
C6
C6
E6
E6
D8
ENDCHAR
STARTCHAR c
ENCODING 99
SWIDTH 500 0
DWIDTH 10 0
BBX 7 8 1 0
BITMAP
78
78
C6
C0
C0
C6
C6
78
ENDCHAR
STARTCHAR d
ENCODING 100
SWIDTH 500 0
DWIDTH 10 0
BBX 7 11 1 0
BITMAP
06
06
06
76
76
CE
C6
C6
CE
CE
76
ENDCHAR
STARTCHAR e
ENCODING 101
SWIDTH 500 0
DWIDTH 10 0
BBX 7 8 1 0
BITMAP
78
78
C6
FE
C0
C6
C6
78
ENDCHAR
STARTCHAR f
ENCODING 102
SWIDTH 500 0
DWIDTH 10 0
BBX 4 11 2 0
BITMAP
10
20
F0
F0
20
20
20
20
20
20
20
ENDCHAR
STARTCHAR g
ENCODING 103
SWIDTH 500 0
DWIDTH 10 0
BBX 7 11 1 -3
BITMAP
7E
7E
C6
C6
C6
FE
7E
06
C6
78
78
ENDCHAR
STARTCHAR h
ENCODING 104
SWIDTH 500 0
DWIDTH 10 0
BBX 7 11 1 0
BITMAP
C0
C0
C0
F8
F8
C6
C6
C6
C6
C6
C6
ENDCHAR
STARTCHAR i
ENCODING 105
SWIDTH 500 0
DWIDTH 10 0
BBX 4 10 2 0
BITMAP
10
00
F0
F0
10
10
10
10
10
10
ENDCHAR
STARTCHAR j
ENCODING 106
SWIDTH 500 0
DWIDTH 10 0
BBX 4 13 2 -3
BITMAP
10
00
10
10
10
10
10
10
10
10
20
C0
C0
ENDCHAR
STARTCHAR k
ENCODING 107
SWIDTH 500 0
DWIDTH 10 0
BBX 7 10 1 0
BITMAP
C0
C0
C6
C6
C8
D0
F0
F8
C8
C6
ENDCHAR
STARTCHAR l
ENCODING 108
SWIDTH 500 0
DWIDTH 10 0
BBX 6 11 2 0
BITMAP
F0
10
10
10
10
10
10
10
10
10
1C
ENDCHAR
STARTCHAR m
ENCODING 109
SWIDTH 500 0
DWIDTH 10 0
BBX 9 8 0 0
BITMAP
F700
F700
8980
8980
8980
8980
8980
8980
ENDCHAR
STARTCHAR n
ENCODING 110
SWIDTH 500 0
DWIDTH 10 0
BBX 7 8 1 0
BITMAP
F8
F8
C6
C6
C6
C6
C6
C6
ENDCHAR
STARTCHAR o
ENCODING 111
SWIDTH 500 0
DWIDTH 10 0
BBX 7 8 1 0
BITMAP
78
78
C6
C6
C6
C6
C6
78
ENDCHAR
STARTCHAR p
ENCODING 112
SWIDTH 500 0
DWIDTH 10 0
BBX 7 11 1 -3
BITMAP
D8
D8
E6
C6
C6
E6
E6
D8
C0
C0
C0
ENDCHAR
STARTCHAR q
ENCODING 113
SWIDTH 500 0
DWIDTH 10 0
BBX 7 11 1 -3
BITMAP
76
76
CE
C6
C6
CE
CE
76
06
06
06
ENDCHAR
STARTCHAR r
ENCODING 114
SWIDTH 500 0
DWIDTH 10 0
BBX 6 8 2 0
BITMAP
DC
DC
E0
C0
C0
C0
C0
C0
ENDCHAR
STARTCHAR s
ENCODING 115
SWIDTH 500 0
DWIDTH 10 0
BBX 7 8 1 0
BITMAP
78
78
C6
70
08
CE
C6
78
ENDCHAR
STARTCHAR t
ENCODING 116
SWIDTH 500 0
DWIDTH 10 0
BBX 6 9 2 0
BITMAP
20
F0
F0
20
20
20
20
20
1C
ENDCHAR
STARTCHAR u
ENCODING 117
SWIDTH 500 0
DWIDTH 10 0
BBX 7 8 1 0
BITMAP
C6
C6
C6
C6
C6
C6
C6
7E
ENDCHAR
STARTCHAR v
ENCODING 118
SWIDTH 500 0
DWIDTH 10 0
BBX 7 8 1 0
BITMAP
C6
C6
C6
C6
68
68
68
10
ENDCHAR
STARTCHAR w
ENCODING 119
SWIDTH 500 0
DWIDTH 10 0
BBX 7 8 1 0
BITMAP
C6
C6
C6
D6
D6
D6
D6
68
ENDCHAR
STARTCHAR x
ENCODING 120
SWIDTH 500 0
DWIDTH 10 0
BBX 7 8 1 0
BITMAP
C6
C6
68
10
10
78
68
C6
ENDCHAR
STARTCHAR y
ENCODING 121
SWIDTH 500 0
DWIDTH 10 0
BBX 8 11 1 -3
BITMAP
C3
C3
66
66
66
7E
18
08
10
E0
E0
ENDCHAR
STARTCHAR z
ENCODING 122
SWIDTH 500 0
DWIDTH 10 0
BBX 7 8 1 0
BITMAP
FE
FE
08
10
60
E0
C0
FE
ENDCHAR
STARTCHAR braceleft
ENCODING 123
SWIDTH 500 0
DWIDTH 10 0
BBX 8 17 1 -3
BITMAP
07
0F
08
08
08
08
08
08
F0
08
08
08
08
08
08
07
07
ENDCHAR
STARTCHAR bar
ENCODING 124
SWIDTH 500 0
DWIDTH 10 0
BBX 1 17 4 -3
BITMAP
80
80
80
80
80
80
80
80
80
80
80
80
80
80
80
80
80
ENDCHAR
STARTCHAR braceright
ENCODING 125
SWIDTH 500 0
DWIDTH 10 0
BBX 9 17 0 -3
BITMAP
F000
F800
0800
0800
0800
0800
0800
0800
0780
0800
0800
0800
0800
0800
0800
F000
F000
ENDCHAR
STARTCHAR asciitilde
ENCODING 126
SWIDTH 500 0
DWIDTH 10 0
BBX 9 4 0 2
BITMAP
7000
8980
0700
0700
ENDCHAR
STARTCHAR uni00A0
ENCODING 160
SWIDTH 500 0
DWIDTH 10 0
BBX 1 1 0 0
BITMAP
00
ENDCHAR
STARTCHAR sterling
ENCODING 163
SWIDTH 500 0
DWIDTH 10 0
BBX 8 13 1 0
BITMAP
0E
0E
10
70
70
FE
FE
70
70
70
70
70
CF
ENDCHAR
STARTCHAR currency
ENCODING 164
SWIDTH 500 0
DWIDTH 10 0
BBX 11 11 0 0
BITMAP
3F80
6040
8F20
BF20
B020
B7A0
B1A0
8F20
EF60
6040
3F80
ENDCHAR
STARTCHAR yen
ENCODING 165
SWIDTH 500 0
DWIDTH 10 0
BBX 9 14 0 0
BITMAP
6300
6300
6300
6300
6300
3400
3C00
0800
FF80
0800
FF80
FF80
0800
0800
ENDCHAR
STARTCHAR brokenbar
ENCODING 166
SWIDTH 500 0
DWIDTH 10 0
BBX 1 17 4 -3
BITMAP
80
80
80
80
80
80
80
80
00
00
80
80
80
80
80
80
80
ENDCHAR
STARTCHAR guillemotleft
ENCODING 171
SWIDTH 500 0
DWIDTH 10 0
BBX 8 7 0 1
BITMAP
33
33
64
88
64
77
33
ENDCHAR
STARTCHAR degree
ENCODING 176
SWIDTH 500 0
DWIDTH 10 0
BBX 5 7 0 7
BITMAP
70
F8
F8
88
F8
70
70
ENDCHAR
STARTCHAR periodcentered
ENCODING 183
SWIDTH 500 0
DWIDTH 10 0
BBX 1 1 0 4
BITMAP
80
ENDCHAR
STARTCHAR guillemotright
ENCODING 187
SWIDTH 500 0
DWIDTH 10 0
BBX 8 7 0 1
BITMAP
88
88
64
33
64
EC
88
ENDCHAR
STARTCHAR Oacute
ENCODING 211
SWIDTH 500 0
DWIDTH 10 0
BBX 8 15 0 0
BITMAP
08
30
30
00
38
64
83
83
83
83
83
83
E7
64
38
ENDCHAR
STARTCHAR multiply
ENCODING 215
SWIDTH 500 0
DWIDTH 10 0
BBX 5 5 1 1
BITMAP
C8
70
70
F8
C8
ENDCHAR
STARTCHAR oacute
ENCODING 243
SWIDTH 500 0
DWIDTH 10 0
BBX 6 11 0 0
BITMAP
08
30
00
78
78
84
84
84
84
84
78
ENDCHAR
STARTCHAR divide
ENCODING 247
SWIDTH 500 0
DWIDTH 10 0
BBX 5 7 0 2
BITMAP
70
70
00
F8
00
70
70
ENDCHAR
STARTCHAR Aogonek
ENCODING 260
SWIDTH 500 0
DWIDTH 10 0
BBX 8 14 0 -3
BITMAP
38
64
64
E7
83
83
FF
83
83
83
83
04
03
03
ENDCHAR
STARTCHAR aogonek
ENCODING 261
SWIDTH 500 0
DWIDTH 10 0
BBX 8 11 0 -3
BITMAP
78
78
84
7C
84
8C
8C
73
04
03
03
ENDCHAR
STARTCHAR Cacute
ENCODING 262
SWIDTH 500 0
DWIDTH 10 0
BBX 8 15 0 0
BITMAP
08
30
30
00
7C
83
80
80
80
80
80
80
83
83
7C
ENDCHAR
STARTCHAR cacute
ENCODING 263
SWIDTH 500 0
DWIDTH 10 0
BBX 6 11 0 0
BITMAP
08
30
00
78
78
84
80
80
84
84
78
ENDCHAR
STARTCHAR Eogonek
ENCODING 280
SWIDTH 500 0
DWIDTH 10 0
BBX 8 14 0 -3
BITMAP
FF
80
80
80
80
FC
80
80
80
80
FF
04
03
03
ENDCHAR
STARTCHAR eogonek
ENCODING 281
SWIDTH 500 0
DWIDTH 10 0
BBX 6 11 0 -3
BITMAP
78
78
84
FC
80
84
84
78
08
04
04
ENDCHAR
STARTCHAR Lslash
ENCODING 321
SWIDTH 500 0
DWIDTH 10 0
BBX 8 11 0 0
BITMAP
60
60
68
78
70
60
E0
60
60
60
7F
ENDCHAR
STARTCHAR lslash
ENCODING 322
SWIDTH 500 0
DWIDTH 10 0
BBX 5 11 0 0
BITMAP
60
60
68
78
70
60
E0
60
60
60
60
ENDCHAR
STARTCHAR Nacute
ENCODING 323
SWIDTH 500 0
DWIDTH 10 0
BBX 8 15 0 0
BITMAP
08
30
30
00
83
E3
B3
B3
B3
8B
8B
87
87
83
83
ENDCHAR
STARTCHAR nacute
ENCODING 324
SWIDTH 500 0
DWIDTH 10 0
BBX 6 11 0 0
BITMAP
08
30
00
F8
F8
84
84
84
84
84
84
ENDCHAR
STARTCHAR Sacute
ENCODING 346
SWIDTH 500 0
DWIDTH 10 0
BBX 8 15 0 0
BITMAP
0C
38
38
00
7C
83
80
E0
60
38
04
03
83
83
7C
ENDCHAR
STARTCHAR sacute
ENCODING 347
SWIDTH 500 0
DWIDTH 10 0
BBX 6 11 0 0
BITMAP
08
30
00
78
78
84
70
08
8C
84
78
ENDCHAR
STARTCHAR Zacute
ENCODING 377
SWIDTH 500 0
DWIDTH 10 0
BBX 9 15 0 0
BITMAP
0400
0800
0800
0000
FF80
0180
0300
0700
0400
0800
3000
6000
E000
8000
FF80
ENDCHAR
STARTCHAR zacute
ENCODING 378
SWIDTH 500 0
DWIDTH 10 0
BBX 6 11 0 0
BITMAP
08
30
00
FC
FC
08
30
60
E0
80
FC
ENDCHAR
STARTCHAR Zdotaccent
ENCODING 379
SWIDTH 500 0
DWIDTH 10 0
BBX 9 15 0 0
BITMAP
0C00
0C00
0C00
0000
FF80
0180
0300
0700
0400
0800
3000
6000
E000
8000
FF80
ENDCHAR
STARTCHAR zdotaccent
ENCODING 380
SWIDTH 500 0
DWIDTH 10 0
BBX 6 10 0 0
BITMAP
30
00
FC
FC
08
30
60
E0
80
FC
ENDCHAR
STARTCHAR uni2000
ENCODING 8192
SWIDTH 500 0
DWIDTH 10 0
BBX 1 1 0 0
BITMAP
00
ENDCHAR
STARTCHAR uni2001
ENCODING 8193
SWIDTH 500 0
DWIDTH 10 0
BBX 1 1 0 0
BITMAP
00
ENDCHAR
STARTCHAR uni2002
ENCODING 8194
SWIDTH 500 0
DWIDTH 10 0
BBX 1 1 0 0
BITMAP
00
ENDCHAR
STARTCHAR uni2003
ENCODING 8195
SWIDTH 500 0
DWIDTH 10 0
BBX 1 1 0 0
BITMAP
00
ENDCHAR
STARTCHAR uni2004
ENCODING 8196
SWIDTH 500 0
DWIDTH 10 0
BBX 1 1 0 0
BITMAP
00
ENDCHAR
STARTCHAR uni2005
ENCODING 8197
SWIDTH 500 0
DWIDTH 10 0
BBX 1 1 0 0
BITMAP
00
ENDCHAR
STARTCHAR uni2006
ENCODING 8198
SWIDTH 500 0
DWIDTH 10 0
BBX 1 1 0 0
BITMAP
00
ENDCHAR
STARTCHAR uni2007
ENCODING 8199
SWIDTH 500 0
DWIDTH 10 0
BBX 1 1 0 0
BITMAP
00
ENDCHAR
STARTCHAR uni2008
ENCODING 8200
SWIDTH 500 0
DWIDTH 10 0
BBX 1 1 0 0
BITMAP
00
ENDCHAR
STARTCHAR uni2009
ENCODING 8201
SWIDTH 500 0
DWIDTH 10 0
BBX 1 1 0 0
BITMAP
00
ENDCHAR
STARTCHAR uni200A
ENCODING 8202
SWIDTH 500 0
DWIDTH 10 0
BBX 1 1 0 0
BITMAP
00
ENDCHAR
STARTCHAR emdash
ENCODING 8212
SWIDTH 500 0
DWIDTH 10 0
BBX 10 1 0 4
BITMAP
FFC0
ENDCHAR
STARTCHAR quoteleft
ENCODING 8216
SWIDTH 500 0
DWIDTH 10 0
BBX 3 6 0 7
BITMAP
60
60
80
E0
E0
E0
ENDCHAR
STARTCHAR quoteright
ENCODING 8217
SWIDTH 500 0
DWIDTH 10 0
BBX 3 6 0 7
BITMAP
E0
E0
E0
60
80
80
ENDCHAR
STARTCHAR quotedblleft
ENCODING 8220
SWIDTH 500 0
DWIDTH 10 0
BBX 3 6 0 7
BITMAP
60
60
80
E0
E0
E0
ENDCHAR
STARTCHAR quotedblright
ENCODING 8221
SWIDTH 500 0
DWIDTH 10 0
BBX 6 6 0 7
BITMAP
EC
EC
EC
64
88
88
ENDCHAR
STARTCHAR quotedblbase
ENCODING 8222
SWIDTH 500 0
DWIDTH 10 0
BBX 4 2 0 -1
BITMAP
F0
80
ENDCHAR
STARTCHAR bullet
ENCODING 8226
SWIDTH 500 0
DWIDTH 10 0
BBX 3 1 0 4
BITMAP
E0
ENDCHAR
STARTCHAR ellipsis
ENCODING 8230
SWIDTH 500 0
DWIDTH 10 0
BBX 5 1 0 0
BITMAP
F8
ENDCHAR
STARTCHAR guilsinglleft
ENCODING 8249
SWIDTH 500 0
DWIDTH 10 0
BBX 4 7 0 1
BITMAP
30
30
60
80
60
70
30
ENDCHAR
STARTCHAR guilsinglright
ENCODING 8250
SWIDTH 500 0
DWIDTH 10 0
BBX 4 7 0 1
BITMAP
80
80
60
30
60
E0
80
ENDCHAR
STARTCHAR Euro
ENCODING 8364
SWIDTH 500 0
DWIDTH 10 0
BBX 8 11 1 0
BITMAP
0E
0E
73
FB
F8
70
F8
70
73
13
0E
ENDCHAR
STARTCHAR uni3000
ENCODING 12288
SWIDTH 500 0
DWIDTH 10 0
BBX 1 1 0 0
BITMAP
00
ENDCHAR
STARTCHAR .notdef
ENCODING -1
SWIDTH 365 0
DWIDTH 7 0
BBX 6 14 1 0
BITMAP
FC
84
84
84
84
84
84
84
84
84
84
84
84
FC
ENDCHAR
STARTCHAR .null
ENCODING -1
SWIDTH 0 0
DWIDTH 0 0
BBX 1 1 0 0
BITMAP
00
ENDCHAR
STARTCHAR nonmarkingreturn
ENCODING -1
SWIDTH 333 0
DWIDTH 7 0
BBX 1 1 0 0
BITMAP
00
ENDCHAR
ENDFONT
